<svg width="792" height="595" viewBox="0 0 792 595" fill="none" xmlns="http://www.w3.org/2000/svg">
<g clip-path="url(#clip0_181_193)">
<rect width="792" height="595" fill="white"/>
<g clip-path="url(#clip1_181_193)">
<rect width="396" height="595" fill="#262626"/>
<path d="M44.822 541.64C44.822 541.64 57.035 542.675 57.035 554.888C57.035 564.479 49.79 570.275 40.475 570.275C30.815 570.275 23.915 563.099 23.915 554.888C23.915 545.918 28.331 542.537 32.333 542.537C34.472 542.537 36.611 543.986 36.611 546.47C36.611 549.92 34.058 550.817 32.471 550.817C31.091 550.817 29.711 550.334 28.745 550.334C27.296 550.334 25.64 550.955 25.64 553.301C25.64 557.786 30.125 561.65 37.715 561.65C47.72 561.65 51.17 556.061 51.17 551.231C51.17 544.4 44.822 541.64 44.822 541.64ZM47.03 526.471L29.78 516.466H27.71L24.95 520.606V503.356L27.71 507.496H53.24L56 503.356V520.606L53.24 516.466H33.92L51.17 526.471H53.24L56 522.331V539.581L53.24 535.441H27.71L24.95 539.581V522.331L27.71 526.471H47.03ZM56 502.655L53.24 498.515H27.71L24.95 502.655V485.405L27.71 489.545H38.75V480.23H27.71L24.95 484.37V467.12L27.71 471.26H53.24L56 467.12V484.37L53.24 480.23H40.82V489.545H53.24L56 485.405V502.655ZM56 458.468L53.24 453.983H27.02V456.743L37.37 464.333H24.95V434.663H37.37L27.02 442.253V445.013H53.24L56 440.528V458.468ZM44.822 401.888C44.822 401.888 57.035 402.923 57.035 415.136C57.035 424.727 49.79 430.523 40.475 430.523C30.815 430.523 23.915 423.347 23.915 415.136C23.915 404.303 30.125 401.888 37.37 401.888V421.898H37.715C47.72 421.898 51.17 416.309 51.17 411.479C51.17 404.648 44.822 401.888 44.822 401.888ZM25.64 414.308C25.64 417.689 28.952 421.07 35.3 421.76V415.343C35.3 411.893 34.265 409.823 31.505 409.823C28.055 409.823 25.64 411.203 25.64 414.308ZM36.68 397.276H26.675C26.675 397.276 23.915 392.239 23.915 386.374C23.915 377.749 25.64 371.884 31.85 371.884C38.405 371.884 38.75 380.164 38.75 380.164H39.095C39.095 380.164 39.095 370.849 47.375 370.849C54.275 370.849 57.035 378.163 57.035 385.408C57.035 395.344 52.619 398.449 48.617 398.449C46.478 398.449 44.339 397 44.339 394.516C44.339 391.066 46.892 390.169 48.479 390.169C49.859 390.169 51.239 390.652 52.205 390.652C53.654 390.652 55.31 389.479 55.31 386.305C55.31 382.855 53.24 380.164 47.375 380.164C42.545 380.164 40.475 382.234 40.475 386.374V390.169H38.405V386.719C38.405 382.924 35.99 380.854 32.195 380.854C28.055 380.854 25.64 383.131 25.64 386.719C25.64 389.134 26.675 390.514 26.675 390.514L36.68 397.276Z" fill="white"/>
<g filter="url(#filter0_f_181_193)">
<rect x="371" y="-42" width="58" height="751" fill="#D03DB5"/>
</g>
</g>
<g clip-path="url(#clip2_181_193)">
<rect width="396" height="595" transform="translate(396)" fill="#262626"/>
<g filter="url(#filter1_f_181_193)">
<rect x="363" y="-47" width="58" height="751" fill="#D03DB5"/>
</g>
<path d="M496.98 136.66H494.54V143H493.58V136.66H491.14V135.82H496.98V136.66ZM502.323 140.38C502.323 140.81 502.273 141.19 502.153 141.54C502.043 141.88 501.893 142.17 501.683 142.41C501.473 142.65 501.213 142.84 500.913 142.97C500.613 143.1 500.273 143.16 499.893 143.16C499.513 143.16 499.173 143.1 498.873 142.97C498.573 142.84 498.323 142.65 498.113 142.41C497.903 142.17 497.743 141.88 497.633 141.54C497.523 141.19 497.463 140.81 497.463 140.38C497.463 139.95 497.523 139.57 497.633 139.23C497.743 138.89 497.903 138.6 498.113 138.36C498.323 138.12 498.573 137.93 498.873 137.8C499.173 137.67 499.513 137.61 499.893 137.61C500.273 137.61 500.613 137.67 500.913 137.8C501.213 137.93 501.473 138.12 501.683 138.36C501.893 138.6 502.043 138.89 502.153 139.23C502.273 139.57 502.323 139.95 502.323 140.38ZM501.423 140.38C501.423 140.09 501.393 139.82 501.323 139.58C501.263 139.34 501.163 139.13 501.033 138.95C500.903 138.78 500.743 138.64 500.553 138.54C500.363 138.44 500.143 138.39 499.893 138.39C499.643 138.39 499.423 138.44 499.233 138.54C499.043 138.64 498.883 138.78 498.753 138.95C498.623 139.13 498.523 139.34 498.463 139.58C498.393 139.82 498.363 140.09 498.363 140.38C498.363 140.67 498.393 140.94 498.463 141.18C498.523 141.43 498.623 141.64 498.753 141.82C498.883 141.99 499.043 142.13 499.233 142.23C499.423 142.33 499.643 142.38 499.893 142.38C500.143 142.38 500.363 142.33 500.553 142.23C500.743 142.13 500.903 141.99 501.033 141.82C501.163 141.64 501.263 141.43 501.323 141.18C501.393 140.94 501.423 140.67 501.423 140.38ZM504.81 139.81C504.79 140.44 504.74 140.97 504.66 141.39C504.58 141.82 504.48 142.16 504.34 142.42C504.21 142.68 504.04 142.86 503.85 142.97C503.66 143.07 503.44 143.13 503.19 143.13C503.1 143.13 503.02 143.11 502.96 143.09C502.89 143.06 502.84 143.03 502.8 143V142.21C502.93 142.26 503.04 142.28 503.14 142.28C503.21 142.28 503.28 142.27 503.34 142.25C503.4 142.22 503.46 142.18 503.52 142.12C503.57 142.05 503.63 141.96 503.68 141.84C503.72 141.72 503.77 141.56 503.81 141.37C503.84 141.18 503.88 140.95 503.9 140.68C503.92 140.4 503.94 140.08 503.95 139.7L503.99 137.77H507.75V143H506.85V138.55H504.85L504.81 139.81ZM509.972 139.74H511.422C511.712 139.74 511.962 139.78 512.182 139.85C512.412 139.93 512.602 140.04 512.762 140.18C512.912 140.32 513.032 140.49 513.122 140.69C513.202 140.89 513.242 141.12 513.242 141.37C513.242 141.62 513.202 141.85 513.122 142.05C513.032 142.25 512.912 142.42 512.762 142.56C512.602 142.7 512.412 142.81 512.182 142.89C511.962 142.96 511.712 143 511.422 143H509.072V137.77H509.972V139.74ZM511.242 142.28C511.402 142.28 511.542 142.27 511.682 142.23C511.812 142.2 511.932 142.15 512.032 142.07C512.132 142 512.202 141.91 512.262 141.79C512.312 141.68 512.342 141.54 512.342 141.37C512.342 141.21 512.312 141.07 512.262 140.95C512.202 140.84 512.122 140.74 512.022 140.67C511.922 140.6 511.792 140.54 511.652 140.51C511.502 140.48 511.342 140.46 511.162 140.46H509.972V142.28H511.242ZM514.972 140.3L517.612 137.77H518.792L516.332 140.08L518.832 143H517.672L515.632 140.63L514.972 141.18V143H514.072V137.77H514.972V140.3ZM524.101 140.38C524.101 140.81 524.051 141.19 523.931 141.54C523.821 141.88 523.671 142.17 523.461 142.41C523.251 142.65 522.991 142.84 522.691 142.97C522.391 143.1 522.051 143.16 521.671 143.16C521.291 143.16 520.951 143.1 520.651 142.97C520.351 142.84 520.101 142.65 519.891 142.41C519.681 142.17 519.521 141.88 519.411 141.54C519.301 141.19 519.241 140.81 519.241 140.38C519.241 139.95 519.301 139.57 519.411 139.23C519.521 138.89 519.681 138.6 519.891 138.36C520.101 138.12 520.351 137.93 520.651 137.8C520.951 137.67 521.291 137.61 521.671 137.61C522.051 137.61 522.391 137.67 522.691 137.8C522.991 137.93 523.251 138.12 523.461 138.36C523.671 138.6 523.821 138.89 523.931 139.23C524.051 139.57 524.101 139.95 524.101 140.38ZM523.201 140.38C523.201 140.09 523.171 139.82 523.101 139.58C523.041 139.34 522.941 139.13 522.811 138.95C522.681 138.78 522.521 138.64 522.331 138.54C522.141 138.44 521.921 138.39 521.671 138.39C521.421 138.39 521.201 138.44 521.011 138.54C520.821 138.64 520.661 138.78 520.531 138.95C520.401 139.13 520.301 139.34 520.241 139.58C520.171 139.82 520.141 140.09 520.141 140.38C520.141 140.67 520.171 140.94 520.241 141.18C520.301 141.43 520.401 141.64 520.531 141.82C520.661 141.99 520.821 142.13 521.011 142.23C521.201 142.33 521.421 142.38 521.671 142.38C521.921 142.38 522.141 142.33 522.331 142.23C522.521 142.13 522.681 141.99 522.811 141.82C522.941 141.64 523.041 141.43 523.101 141.18C523.171 140.94 523.201 140.67 523.201 140.38ZM528.21 144.28H527.37V142.22H528.06C528.2 141.87 528.31 141.51 528.4 141.14C528.48 140.77 528.55 140.41 528.59 140.03C528.64 139.66 528.67 139.28 528.68 138.91C528.69 138.53 528.7 138.15 528.7 137.77H532.35V142.22H533.09V144.28H532.25V143H528.21V144.28ZM529.56 138.55C529.53 138.85 529.52 139.15 529.49 139.46C529.47 139.78 529.43 140.09 529.39 140.4C529.35 140.72 529.3 141.03 529.23 141.33C529.16 141.64 529.08 141.94 528.97 142.22H531.45V138.55H529.56ZM535.435 139.81C535.415 140.44 535.365 140.97 535.285 141.39C535.205 141.82 535.105 142.16 534.965 142.42C534.835 142.68 534.665 142.86 534.475 142.97C534.285 143.07 534.065 143.13 533.815 143.13C533.725 143.13 533.645 143.11 533.585 143.09C533.515 143.06 533.465 143.03 533.425 143V142.21C533.555 142.26 533.665 142.28 533.765 142.28C533.835 142.28 533.905 142.27 533.965 142.25C534.025 142.22 534.085 142.18 534.145 142.12C534.195 142.05 534.255 141.96 534.305 141.84C534.345 141.72 534.395 141.56 534.435 141.37C534.465 141.18 534.505 140.95 534.525 140.68C534.545 140.4 534.565 140.08 534.575 139.7L534.615 137.77H538.375V143H537.475V138.55H535.475L535.435 139.81ZM543.047 140.93H541.887C541.677 140.93 541.497 140.93 541.347 140.94C541.187 140.95 541.057 140.98 540.947 141.03C540.847 141.09 540.757 141.16 540.707 141.28C540.637 141.39 540.597 141.54 540.587 141.75L540.547 142.31C540.537 142.33 540.537 142.36 540.537 142.41C540.527 142.46 540.527 142.52 540.517 142.58C540.507 142.65 540.497 142.72 540.477 142.79C540.467 142.87 540.447 142.94 540.417 143H539.427C539.457 142.97 539.467 142.94 539.497 142.91C539.517 142.88 539.537 142.83 539.557 142.78C539.577 142.73 539.597 142.65 539.617 142.57C539.637 142.48 539.657 142.37 539.667 142.23L539.727 141.56C539.747 141.38 539.767 141.24 539.797 141.13C539.827 141.02 539.867 140.92 539.917 140.85C539.967 140.78 540.027 140.72 540.107 140.67C540.197 140.63 540.297 140.58 540.417 140.53C539.857 140.33 539.577 139.91 539.577 139.29C539.577 139.13 539.597 138.99 539.637 138.85C539.677 138.72 539.727 138.61 539.797 138.5C539.857 138.4 539.927 138.31 540.007 138.22C540.087 138.15 540.167 138.08 540.247 138.03C540.347 137.97 540.457 137.91 540.577 137.88C540.707 137.84 540.827 137.82 540.947 137.8C541.067 137.79 541.187 137.78 541.307 137.78C541.417 137.77 541.527 137.77 541.627 137.77H543.947V143H543.047V140.93ZM541.377 138.56C541.297 138.57 541.217 138.57 541.157 138.58C541.097 138.58 541.037 138.6 540.977 138.61C540.927 138.63 540.877 138.65 540.817 138.68C540.707 138.74 540.617 138.84 540.557 138.97C540.497 139.09 540.467 139.23 540.467 139.37C540.467 139.51 540.487 139.63 540.527 139.72C540.577 139.82 540.627 139.9 540.707 139.96C540.767 140.03 540.847 140.07 540.937 140.1C541.017 140.14 541.107 140.16 541.197 140.18L541.457 140.21C541.537 140.21 541.617 140.21 541.677 140.21H543.047V138.56H541.377ZM552.166 141.16C552.156 141.29 552.126 141.42 552.096 141.57C552.056 141.73 551.996 141.87 551.926 142.02C551.856 142.17 551.766 142.31 551.656 142.45C551.546 142.58 551.406 142.71 551.246 142.81C551.086 142.92 550.896 143 550.676 143.07C550.456 143.13 550.206 143.16 549.926 143.16C549.776 143.16 549.616 143.14 549.446 143.11C549.266 143.07 549.106 143 548.946 142.92C548.786 142.83 548.636 142.72 548.486 142.58C548.346 142.44 548.216 142.27 548.106 142.06C547.996 141.86 547.906 141.62 547.846 141.34C547.786 141.08 547.746 140.76 547.746 140.41C547.746 139.98 547.816 139.59 547.936 139.24C548.056 138.89 548.226 138.6 548.436 138.36C548.636 138.12 548.876 137.94 549.156 137.8C549.426 137.67 549.716 137.61 550.016 137.61C550.296 137.61 550.536 137.64 550.746 137.7C550.956 137.76 551.136 137.83 551.296 137.93C551.446 138.03 551.576 138.14 551.686 138.27C551.796 138.4 551.886 138.53 551.956 138.67C552.016 138.82 552.066 138.96 552.106 139.11C552.136 139.25 552.156 139.4 552.166 139.53H551.326C551.286 139.17 551.156 138.89 550.956 138.69C550.756 138.49 550.476 138.39 550.116 138.39C549.866 138.39 549.656 138.44 549.476 138.54C549.286 138.64 549.136 138.78 549.016 138.96C548.886 139.14 548.796 139.36 548.736 139.62C548.676 139.88 548.646 140.15 548.646 140.46C548.646 140.81 548.676 141.1 548.746 141.35C548.806 141.6 548.896 141.8 549.026 141.96C549.146 142.13 549.286 142.25 549.466 142.32C549.636 142.4 549.836 142.44 550.056 142.44C550.216 142.44 550.356 142.41 550.506 142.35C550.646 142.3 550.766 142.21 550.876 142.1C550.986 141.99 551.086 141.86 551.156 141.7C551.236 141.54 551.296 141.36 551.326 141.16H552.166ZM557.606 140.38C557.606 140.81 557.556 141.19 557.436 141.54C557.326 141.88 557.176 142.17 556.966 142.41C556.756 142.65 556.496 142.84 556.196 142.97C555.896 143.1 555.556 143.16 555.176 143.16C554.796 143.16 554.456 143.1 554.156 142.97C553.856 142.84 553.606 142.65 553.396 142.41C553.186 142.17 553.026 141.88 552.916 141.54C552.806 141.19 552.746 140.81 552.746 140.38C552.746 139.95 552.806 139.57 552.916 139.23C553.026 138.89 553.186 138.6 553.396 138.36C553.606 138.12 553.856 137.93 554.156 137.8C554.456 137.67 554.796 137.61 555.176 137.61C555.556 137.61 555.896 137.67 556.196 137.8C556.496 137.93 556.756 138.12 556.966 138.36C557.176 138.6 557.326 138.89 557.436 139.23C557.556 139.57 557.606 139.95 557.606 140.38ZM556.706 140.38C556.706 140.09 556.676 139.82 556.606 139.58C556.546 139.34 556.446 139.13 556.316 138.95C556.186 138.78 556.026 138.64 555.836 138.54C555.646 138.44 555.426 138.39 555.176 138.39C554.926 138.39 554.706 138.44 554.516 138.54C554.326 138.64 554.166 138.78 554.036 138.95C553.906 139.13 553.806 139.34 553.746 139.58C553.676 139.82 553.646 140.09 553.646 140.38C553.646 140.67 553.676 140.94 553.746 141.18C553.806 141.43 553.906 141.64 554.036 141.82C554.166 141.99 554.326 142.13 554.516 142.23C554.706 142.33 554.926 142.38 555.176 142.38C555.426 142.38 555.646 142.33 555.836 142.23C556.026 142.13 556.186 141.99 556.316 141.82C556.446 141.64 556.546 141.43 556.606 141.18C556.676 140.94 556.706 140.67 556.706 140.38ZM558.203 137.77H562.703V138.55H560.903V143H560.003V138.55H558.203V137.77ZM564.463 138.49H564.483C564.543 138.37 564.613 138.25 564.703 138.15C564.793 138.04 564.903 137.95 565.033 137.86C565.153 137.79 565.293 137.72 565.463 137.68C565.623 137.63 565.813 137.61 566.023 137.61C566.303 137.61 566.573 137.66 566.833 137.77C567.093 137.88 567.313 138.04 567.513 138.25C567.713 138.47 567.873 138.74 567.983 139.06C568.103 139.39 568.163 139.76 568.163 140.19C568.163 140.73 568.113 141.18 568.003 141.56C567.893 141.94 567.743 142.24 567.533 142.48C567.333 142.72 567.093 142.89 566.813 143C566.523 143.11 566.213 143.16 565.863 143.16C565.693 143.16 565.533 143.14 565.383 143.09C565.233 143.05 565.093 142.99 564.983 142.91C564.853 142.84 564.753 142.76 564.673 142.67C564.593 142.58 564.523 142.49 564.483 142.41H564.463V145.06H563.563V137.77H564.463V138.49ZM564.443 140.41C564.443 140.7 564.473 140.95 564.523 141.19C564.583 141.43 564.663 141.64 564.783 141.82C564.893 141.99 565.043 142.13 565.223 142.23C565.393 142.33 565.593 142.38 565.833 142.38C566.083 142.38 566.293 142.33 566.483 142.23C566.663 142.13 566.803 141.99 566.923 141.82C567.043 141.64 567.123 141.43 567.183 141.19C567.233 140.95 567.263 140.7 567.263 140.41C567.263 140.11 567.233 139.85 567.183 139.6C567.123 139.35 567.043 139.14 566.923 138.96C566.803 138.78 566.663 138.64 566.483 138.54C566.293 138.44 566.083 138.39 565.833 138.39C565.593 138.39 565.393 138.44 565.223 138.54C565.043 138.64 564.893 138.78 564.783 138.96C564.663 139.14 564.583 139.35 564.523 139.6C564.473 139.85 564.443 140.11 564.443 140.41ZM571 142.03H571.02L572.41 137.77H573.4L571.4 143.21C571.3 143.48 571.21 143.72 571.12 143.92C571.04 144.12 570.96 144.3 570.87 144.44C570.79 144.58 570.71 144.69 570.63 144.78C570.55 144.87 570.45 144.94 570.36 144.99C570.25 145.04 570.15 145.08 570.02 145.09C569.9 145.11 569.76 145.12 569.6 145.12C569.47 145.12 569.37 145.11 569.3 145.1C569.22 145.09 569.15 145.08 569.1 145.06V144.25C569.16 144.27 569.24 144.29 569.33 144.31C569.42 144.33 569.53 144.34 569.63 144.34C569.79 144.34 569.93 144.3 570.03 144.22C570.14 144.14 570.21 144.03 570.27 143.88L570.56 143.14L568.62 137.77H569.61L571 142.03ZM574.49 144.28H573.65V142.22H574.34C574.48 141.87 574.59 141.51 574.68 141.14C574.76 140.77 574.83 140.41 574.87 140.03C574.92 139.66 574.95 139.28 574.96 138.91C574.97 138.53 574.98 138.15 574.98 137.77H578.63V142.22H579.37V144.28H578.53V143H574.49V144.28ZM575.84 138.55C575.81 138.85 575.8 139.15 575.77 139.46C575.75 139.78 575.71 140.09 575.67 140.4C575.63 140.72 575.58 141.03 575.51 141.33C575.44 141.64 575.36 141.94 575.25 142.22H577.73V138.55H575.84ZM581.134 139.88H583.574V137.77H584.474V143H583.574V140.66H581.134V143H580.234V137.77H581.134V139.88ZM586.691 141.78H586.711L589.281 137.77H590.311V143H589.401V138.99H589.381L586.821 143H585.791V137.77H586.691V141.78ZM592.521 140.3L595.161 137.77H596.341L593.881 140.08L596.381 143H595.221L593.181 140.63L592.521 141.18V143H591.621V137.77H592.521V140.3ZM601.649 140.38C601.649 140.81 601.599 141.19 601.479 141.54C601.369 141.88 601.219 142.17 601.009 142.41C600.799 142.65 600.539 142.84 600.239 142.97C599.939 143.1 599.599 143.16 599.219 143.16C598.839 143.16 598.499 143.1 598.199 142.97C597.899 142.84 597.649 142.65 597.439 142.41C597.229 142.17 597.069 141.88 596.959 141.54C596.849 141.19 596.789 140.81 596.789 140.38C596.789 139.95 596.849 139.57 596.959 139.23C597.069 138.89 597.229 138.6 597.439 138.36C597.649 138.12 597.899 137.93 598.199 137.8C598.499 137.67 598.839 137.61 599.219 137.61C599.599 137.61 599.939 137.67 600.239 137.8C600.539 137.93 600.799 138.12 601.009 138.36C601.219 138.6 601.369 138.89 601.479 139.23C601.599 139.57 601.649 139.95 601.649 140.38ZM600.749 140.38C600.749 140.09 600.719 139.82 600.649 139.58C600.589 139.34 600.489 139.13 600.359 138.95C600.229 138.78 600.069 138.64 599.879 138.54C599.689 138.44 599.469 138.39 599.219 138.39C598.969 138.39 598.749 138.44 598.559 138.54C598.369 138.64 598.209 138.78 598.079 138.95C597.949 139.13 597.849 139.34 597.789 139.58C597.719 139.82 597.689 140.09 597.689 140.38C597.689 140.67 597.719 140.94 597.789 141.18C597.849 141.43 597.949 141.64 598.079 141.82C598.209 141.99 598.369 142.13 598.559 142.23C598.749 142.33 598.969 142.38 599.219 142.38C599.469 142.38 599.689 142.33 599.879 142.23C600.069 142.13 600.229 141.99 600.359 141.82C600.489 141.64 600.589 141.43 600.649 141.18C600.719 140.94 600.749 140.67 600.749 140.38ZM604.886 137.77C605.526 137.77 605.996 137.89 606.316 138.13C606.636 138.37 606.786 138.71 606.786 139.16C606.786 139.4 606.736 139.61 606.616 139.77C606.496 139.94 606.346 140.08 606.156 140.21C606.426 140.31 606.646 140.47 606.806 140.66C606.976 140.86 607.056 141.11 607.056 141.42C607.056 141.66 607.016 141.88 606.936 142.08C606.846 142.27 606.726 142.44 606.566 142.58C606.396 142.71 606.186 142.81 605.936 142.89C605.676 142.96 605.366 143 605.026 143H602.656V137.77H604.886ZM604.916 139.98C605.216 139.98 605.456 139.92 605.626 139.8C605.806 139.68 605.896 139.49 605.896 139.24C605.896 139.1 605.866 138.98 605.816 138.88C605.766 138.79 605.706 138.71 605.626 138.65C605.536 138.59 605.456 138.55 605.346 138.52C605.246 138.5 605.136 138.49 605.036 138.49H603.556V139.98H604.916ZM604.916 142.28C605.156 142.28 605.356 142.26 605.516 142.22C605.676 142.19 605.796 142.14 605.896 142.06C605.986 141.99 606.056 141.91 606.096 141.8C606.136 141.7 606.156 141.59 606.156 141.46C606.156 141.33 606.136 141.22 606.096 141.12C606.056 141.01 605.986 140.93 605.896 140.86C605.796 140.79 605.676 140.73 605.516 140.7C605.356 140.66 605.156 140.64 604.916 140.64H603.556V142.28H604.916ZM615.028 141.16C615.018 141.29 614.988 141.42 614.958 141.57C614.918 141.73 614.858 141.87 614.788 142.02C614.718 142.17 614.628 142.31 614.518 142.45C614.408 142.58 614.268 142.71 614.108 142.81C613.948 142.92 613.758 143 613.538 143.07C613.318 143.13 613.068 143.16 612.788 143.16C612.638 143.16 612.478 143.14 612.308 143.11C612.128 143.07 611.968 143 611.808 142.92C611.648 142.83 611.498 142.72 611.348 142.58C611.208 142.44 611.078 142.27 610.968 142.06C610.858 141.86 610.768 141.62 610.708 141.34C610.648 141.08 610.608 140.76 610.608 140.41C610.608 139.98 610.678 139.59 610.798 139.24C610.918 138.89 611.088 138.6 611.298 138.36C611.498 138.12 611.738 137.94 612.018 137.8C612.288 137.67 612.578 137.61 612.878 137.61C613.158 137.61 613.398 137.64 613.608 137.7C613.818 137.76 613.998 137.83 614.158 137.93C614.308 138.03 614.438 138.14 614.548 138.27C614.658 138.4 614.748 138.53 614.818 138.67C614.878 138.82 614.928 138.96 614.968 139.11C614.998 139.25 615.018 139.4 615.028 139.53H614.188C614.148 139.17 614.018 138.89 613.818 138.69C613.618 138.49 613.338 138.39 612.978 138.39C612.728 138.39 612.518 138.44 612.338 138.54C612.148 138.64 611.998 138.78 611.878 138.96C611.748 139.14 611.658 139.36 611.598 139.62C611.538 139.88 611.508 140.15 611.508 140.46C611.508 140.81 611.538 141.1 611.608 141.35C611.668 141.6 611.758 141.8 611.888 141.96C612.008 142.13 612.148 142.25 612.328 142.32C612.498 142.4 612.698 142.44 612.918 142.44C613.078 142.44 613.218 142.41 613.368 142.35C613.508 142.3 613.628 142.21 613.738 142.1C613.848 141.99 613.948 141.86 614.018 141.7C614.098 141.54 614.158 141.36 614.188 141.16H615.028ZM620.531 142.03H620.551L621.941 137.77H622.931L620.931 143.21C620.831 143.48 620.741 143.72 620.651 143.92C620.571 144.12 620.491 144.3 620.401 144.44C620.321 144.58 620.241 144.69 620.161 144.78C620.081 144.87 619.981 144.94 619.891 144.99C619.781 145.04 619.681 145.08 619.551 145.09C619.431 145.11 619.291 145.12 619.131 145.12C619.001 145.12 618.901 145.11 618.831 145.1C618.751 145.09 618.681 145.08 618.631 145.06V144.25C618.691 144.27 618.771 144.29 618.861 144.31C618.951 144.33 619.061 144.34 619.161 144.34C619.321 144.34 619.461 144.3 619.561 144.22C619.671 144.14 619.741 144.03 619.801 143.88L620.091 143.14L618.151 137.77H619.141L620.531 142.03ZM624.551 138.49H624.571C624.631 138.37 624.701 138.25 624.791 138.15C624.881 138.04 624.991 137.95 625.121 137.86C625.241 137.79 625.381 137.72 625.551 137.68C625.711 137.63 625.901 137.61 626.111 137.61C626.391 137.61 626.661 137.66 626.921 137.77C627.181 137.88 627.401 138.04 627.601 138.25C627.801 138.47 627.961 138.74 628.071 139.06C628.191 139.39 628.251 139.76 628.251 140.19C628.251 140.73 628.201 141.18 628.091 141.56C627.981 141.94 627.831 142.24 627.621 142.48C627.421 142.72 627.181 142.89 626.901 143C626.611 143.11 626.301 143.16 625.951 143.16C625.781 143.16 625.621 143.14 625.471 143.09C625.321 143.05 625.181 142.99 625.071 142.91C624.941 142.84 624.841 142.76 624.761 142.67C624.681 142.58 624.611 142.49 624.571 142.41H624.551V145.06H623.651V137.77H624.551V138.49ZM624.531 140.41C624.531 140.7 624.561 140.95 624.611 141.19C624.671 141.43 624.751 141.64 624.871 141.82C624.981 141.99 625.131 142.13 625.311 142.23C625.481 142.33 625.681 142.38 625.921 142.38C626.171 142.38 626.381 142.33 626.571 142.23C626.751 142.13 626.891 141.99 627.011 141.82C627.131 141.64 627.211 141.43 627.271 141.19C627.321 140.95 627.351 140.7 627.351 140.41C627.351 140.11 627.321 139.85 627.271 139.6C627.211 139.35 627.131 139.14 627.011 138.96C626.891 138.78 626.751 138.64 626.571 138.54C626.381 138.44 626.171 138.39 625.921 138.39C625.681 138.39 625.481 138.44 625.311 138.54C625.131 138.64 624.981 138.78 624.871 138.96C624.751 139.14 624.671 139.35 624.611 139.6C624.561 139.85 624.531 140.11 624.531 140.41ZM633.808 140.38C633.808 140.81 633.758 141.19 633.638 141.54C633.528 141.88 633.378 142.17 633.168 142.41C632.958 142.65 632.698 142.84 632.398 142.97C632.098 143.1 631.758 143.16 631.378 143.16C630.998 143.16 630.658 143.1 630.358 142.97C630.058 142.84 629.808 142.65 629.598 142.41C629.388 142.17 629.228 141.88 629.118 141.54C629.008 141.19 628.948 140.81 628.948 140.38C628.948 139.95 629.008 139.57 629.118 139.23C629.228 138.89 629.388 138.6 629.598 138.36C629.808 138.12 630.058 137.93 630.358 137.8C630.658 137.67 630.998 137.61 631.378 137.61C631.758 137.61 632.098 137.67 632.398 137.8C632.698 137.93 632.958 138.12 633.168 138.36C633.378 138.6 633.528 138.89 633.638 139.23C633.758 139.57 633.808 139.95 633.808 140.38ZM632.908 140.38C632.908 140.09 632.878 139.82 632.808 139.58C632.748 139.34 632.648 139.13 632.518 138.95C632.388 138.78 632.228 138.64 632.038 138.54C631.848 138.44 631.628 138.39 631.378 138.39C631.128 138.39 630.908 138.44 630.718 138.54C630.528 138.64 630.368 138.78 630.238 138.95C630.108 139.13 630.008 139.34 629.948 139.58C629.878 139.82 629.848 140.09 629.848 140.38C629.848 140.67 629.878 140.94 629.948 141.18C630.008 141.43 630.108 141.64 630.238 141.82C630.368 141.99 630.528 142.13 630.718 142.23C630.908 142.33 631.128 142.38 631.378 142.38C631.628 142.38 631.848 142.33 632.038 142.23C632.228 142.13 632.388 141.99 632.518 141.82C632.648 141.64 632.748 141.43 632.808 141.18C632.878 140.94 632.908 140.67 632.908 140.38ZM637.044 137.77C637.684 137.77 638.154 137.89 638.474 138.13C638.794 138.37 638.944 138.71 638.944 139.16C638.944 139.4 638.894 139.61 638.774 139.77C638.654 139.94 638.504 140.08 638.314 140.21C638.584 140.31 638.804 140.47 638.964 140.66C639.134 140.86 639.214 141.11 639.214 141.42C639.214 141.66 639.174 141.88 639.094 142.08C639.004 142.27 638.884 142.44 638.724 142.58C638.554 142.71 638.344 142.81 638.094 142.89C637.834 142.96 637.524 143 637.184 143H634.814V137.77H637.044ZM637.074 139.98C637.374 139.98 637.614 139.92 637.784 139.8C637.964 139.68 638.054 139.49 638.054 139.24C638.054 139.1 638.024 138.98 637.974 138.88C637.924 138.79 637.864 138.71 637.784 138.65C637.694 138.59 637.614 138.55 637.504 138.52C637.404 138.5 637.294 138.49 637.194 138.49H635.714V139.98H637.074ZM637.074 142.28C637.314 142.28 637.514 142.26 637.674 142.22C637.834 142.19 637.954 142.14 638.054 142.06C638.144 141.99 638.214 141.91 638.254 141.8C638.294 141.7 638.314 141.59 638.314 141.46C638.314 141.33 638.294 141.22 638.254 141.12C638.214 141.01 638.144 140.93 638.054 140.86C637.954 140.79 637.834 140.73 637.674 140.7C637.514 140.66 637.314 140.64 637.074 140.64H635.714V142.28H637.074ZM641.193 139.88H643.633V137.77H644.533V143H643.633V140.66H641.193V143H640.293V137.77H641.193V139.88ZM650.299 141.33C650.269 141.56 650.189 141.78 650.069 142C649.949 142.22 649.789 142.41 649.589 142.58C649.399 142.76 649.169 142.9 648.909 143C648.639 143.11 648.339 143.16 648.019 143.16C647.669 143.16 647.349 143.1 647.049 142.99C646.749 142.87 646.489 142.7 646.279 142.46C646.059 142.23 645.889 141.94 645.769 141.59C645.639 141.24 645.579 140.82 645.579 140.35C645.579 140.03 645.609 139.74 645.689 139.48C645.759 139.22 645.849 138.99 645.969 138.79C646.089 138.59 646.229 138.41 646.379 138.26C646.539 138.11 646.699 137.99 646.879 137.89C647.049 137.8 647.229 137.73 647.409 137.68C647.589 137.63 647.769 137.61 647.939 137.61C648.299 137.61 648.619 137.66 648.919 137.77C649.219 137.88 649.469 138.04 649.689 138.26C649.899 138.48 650.059 138.76 650.189 139.08C650.299 139.42 650.359 139.81 650.359 140.25V140.7H646.539C646.539 140.95 646.579 141.18 646.649 141.39C646.709 141.6 646.809 141.77 646.939 141.92C647.059 142.07 647.219 142.18 647.399 142.26C647.579 142.34 647.779 142.38 648.009 142.38C648.239 142.38 648.439 142.35 648.599 142.28C648.759 142.22 648.889 142.14 648.999 142.03C649.109 141.93 649.189 141.82 649.259 141.7C649.329 141.57 649.379 141.45 649.429 141.33H650.299ZM649.459 139.98C649.449 139.73 649.409 139.5 649.349 139.3C649.269 139.1 649.169 138.94 649.049 138.8C648.929 138.67 648.769 138.57 648.599 138.49C648.419 138.42 648.229 138.39 648.009 138.39C647.809 138.39 647.619 138.43 647.449 138.51C647.269 138.59 647.119 138.7 646.989 138.84C646.859 138.98 646.759 139.15 646.679 139.34C646.599 139.54 646.549 139.75 646.539 139.98H649.459ZM654.096 142.06H654.116L655.516 137.77H656.746V143H655.906V138.79H655.886L654.506 143H653.646L652.266 138.79H652.246V143H651.406V137.77H652.716L654.096 142.06ZM661.169 144.28H660.329V142.22H661.019C661.159 141.87 661.269 141.51 661.359 141.14C661.439 140.77 661.509 140.41 661.549 140.03C661.599 139.66 661.629 139.28 661.639 138.91C661.649 138.53 661.659 138.15 661.659 137.77H665.309V142.22H666.049V144.28H665.209V143H661.169V144.28ZM662.519 138.55C662.489 138.85 662.479 139.15 662.449 139.46C662.429 139.78 662.389 140.09 662.349 140.4C662.309 140.72 662.259 141.03 662.189 141.33C662.119 141.64 662.039 141.94 661.929 142.22H664.409V138.55H662.519ZM671.464 140.38C671.464 140.81 671.414 141.19 671.294 141.54C671.184 141.88 671.034 142.17 670.824 142.41C670.614 142.65 670.354 142.84 670.054 142.97C669.754 143.1 669.414 143.16 669.034 143.16C668.654 143.16 668.314 143.1 668.014 142.97C667.714 142.84 667.464 142.65 667.254 142.41C667.044 142.17 666.884 141.88 666.774 141.54C666.664 141.19 666.604 140.81 666.604 140.38C666.604 139.95 666.664 139.57 666.774 139.23C666.884 138.89 667.044 138.6 667.254 138.36C667.464 138.12 667.714 137.93 668.014 137.8C668.314 137.67 668.654 137.61 669.034 137.61C669.414 137.61 669.754 137.67 670.054 137.8C670.354 137.93 670.614 138.12 670.824 138.36C671.034 138.6 671.184 138.89 671.294 139.23C671.414 139.57 671.464 139.95 671.464 140.38ZM670.564 140.38C670.564 140.09 670.534 139.82 670.464 139.58C670.404 139.34 670.304 139.13 670.174 138.95C670.044 138.78 669.884 138.64 669.694 138.54C669.504 138.44 669.284 138.39 669.034 138.39C668.784 138.39 668.564 138.44 668.374 138.54C668.184 138.64 668.024 138.78 667.894 138.95C667.764 139.13 667.664 139.34 667.604 139.58C667.534 139.82 667.504 140.09 667.504 140.38C667.504 140.67 667.534 140.94 667.604 141.18C667.664 141.43 667.764 141.64 667.894 141.82C668.024 141.99 668.184 142.13 668.374 142.23C668.564 142.33 668.784 142.38 669.034 142.38C669.284 142.38 669.504 142.33 669.694 142.23C669.884 142.13 670.044 141.99 670.174 141.82C670.304 141.64 670.404 141.43 670.464 141.18C670.534 140.94 670.564 140.67 670.564 140.38ZM676.581 141.16C676.571 141.29 676.541 141.42 676.511 141.57C676.471 141.73 676.411 141.87 676.341 142.02C676.271 142.17 676.181 142.31 676.071 142.45C675.961 142.58 675.821 142.71 675.661 142.81C675.501 142.92 675.311 143 675.091 143.07C674.871 143.13 674.621 143.16 674.341 143.16C674.191 143.16 674.031 143.14 673.861 143.11C673.681 143.07 673.521 143 673.361 142.92C673.201 142.83 673.051 142.72 672.901 142.58C672.761 142.44 672.631 142.27 672.521 142.06C672.411 141.86 672.321 141.62 672.261 141.34C672.201 141.08 672.161 140.76 672.161 140.41C672.161 139.98 672.231 139.59 672.351 139.24C672.471 138.89 672.641 138.6 672.851 138.36C673.051 138.12 673.291 137.94 673.571 137.8C673.841 137.67 674.131 137.61 674.431 137.61C674.711 137.61 674.951 137.64 675.161 137.7C675.371 137.76 675.551 137.83 675.711 137.93C675.861 138.03 675.991 138.14 676.101 138.27C676.211 138.4 676.301 138.53 676.371 138.67C676.431 138.82 676.481 138.96 676.521 139.11C676.551 139.25 676.571 139.4 676.581 139.53H675.741C675.701 139.17 675.571 138.89 675.371 138.69C675.171 138.49 674.891 138.39 674.531 138.39C674.281 138.39 674.071 138.44 673.891 138.54C673.701 138.64 673.551 138.78 673.431 138.96C673.301 139.14 673.211 139.36 673.151 139.62C673.091 139.88 673.061 140.15 673.061 140.46C673.061 140.81 673.091 141.1 673.161 141.35C673.221 141.6 673.311 141.8 673.441 141.96C673.561 142.13 673.701 142.25 673.881 142.32C674.051 142.4 674.251 142.44 674.471 142.44C674.631 142.44 674.771 142.41 674.921 142.35C675.061 142.3 675.181 142.21 675.291 142.1C675.401 141.99 675.501 141.86 675.571 141.7C675.651 141.54 675.711 141.36 675.741 141.16H676.581ZM677.061 137.77H681.561V138.55H679.761V143H678.861V138.55H677.061V137.77ZM684.301 142.03H684.321L685.711 137.77H686.701L684.701 143.21C684.601 143.48 684.511 143.72 684.421 143.92C684.341 144.12 684.261 144.3 684.171 144.44C684.091 144.58 684.011 144.69 683.931 144.78C683.851 144.87 683.751 144.94 683.661 144.99C683.551 145.04 683.451 145.08 683.321 145.09C683.201 145.11 683.061 145.12 682.901 145.12C682.771 145.12 682.671 145.11 682.601 145.1C682.521 145.09 682.451 145.08 682.401 145.06V144.25C682.461 144.27 682.541 144.29 682.631 144.31C682.721 144.33 682.831 144.34 682.931 144.34C683.091 144.34 683.231 144.3 683.331 144.22C683.441 144.14 683.511 144.03 683.571 143.88L683.861 143.14L681.921 137.77H682.911L684.301 142.03ZM688.371 143H687.471V137.77H691.711V143H690.811V138.55H688.371V143ZM693.017 139.34C693.027 139.02 693.087 138.75 693.197 138.53C693.307 138.31 693.457 138.13 693.647 138C693.837 137.86 694.057 137.76 694.317 137.7C694.577 137.64 694.857 137.61 695.167 137.61C695.417 137.61 695.667 137.63 695.907 137.69C696.147 137.74 696.357 137.82 696.537 137.94C696.727 138.05 696.877 138.21 696.987 138.39C697.107 138.57 697.157 138.8 697.157 139.06V142.1C697.157 142.18 697.177 142.26 697.227 142.32C697.267 142.38 697.347 142.41 697.447 142.41C697.487 142.41 697.537 142.4 697.587 142.39C697.637 142.39 697.687 142.38 697.737 142.37V142.99C697.667 143.01 697.587 143.03 697.517 143.04C697.447 143.06 697.357 143.07 697.257 143.07C697.097 143.07 696.967 143.05 696.857 143.03C696.737 143 696.647 142.96 696.567 142.9C696.497 142.84 696.437 142.76 696.387 142.66C696.347 142.57 696.327 142.45 696.307 142.31C696.197 142.43 696.077 142.54 695.957 142.64C695.837 142.75 695.697 142.84 695.537 142.91C695.387 142.99 695.217 143.05 695.027 143.1C694.837 143.14 694.627 143.16 694.387 143.16C694.187 143.16 693.997 143.13 693.807 143.06C693.617 143 693.437 142.9 693.287 142.78C693.137 142.65 693.017 142.49 692.927 142.3C692.827 142.12 692.787 141.9 692.787 141.65C692.787 141.38 692.827 141.15 692.927 140.95C693.017 140.75 693.137 140.59 693.277 140.46C693.427 140.32 693.597 140.23 693.787 140.15C693.977 140.08 694.167 140.04 694.357 140.01L695.827 139.83C695.967 139.82 696.077 139.76 696.157 139.67C696.237 139.57 696.277 139.43 696.277 139.22C696.277 138.9 696.177 138.68 695.967 138.54C695.757 138.4 695.467 138.33 695.077 138.33C694.677 138.33 694.387 138.42 694.187 138.58C693.997 138.75 693.877 139 693.857 139.34H693.017ZM696.257 140.34C696.187 140.39 696.097 140.43 695.997 140.47C695.887 140.5 695.767 140.53 695.647 140.55C695.517 140.58 695.377 140.6 695.237 140.61L694.807 140.67C694.647 140.7 694.497 140.72 694.357 140.77C694.227 140.81 694.107 140.87 694.007 140.93C693.897 141 693.827 141.09 693.767 141.18C693.717 141.28 693.687 141.39 693.687 141.52C693.687 141.67 693.707 141.8 693.757 141.92C693.807 142.03 693.867 142.13 693.957 142.2C694.037 142.28 694.137 142.34 694.247 142.38C694.367 142.42 694.497 142.44 694.637 142.44C694.727 142.44 694.827 142.43 694.937 142.4C695.057 142.38 695.167 142.36 695.287 142.31C695.417 142.27 695.527 142.21 695.647 142.15C695.757 142.08 695.867 142 695.957 141.91C696.047 141.81 696.117 141.71 696.177 141.58C696.227 141.46 696.257 141.33 696.257 141.18V140.34ZM701.507 142.51C701.127 142.05 700.947 141.5 700.947 140.85H701.867C701.907 141.31 701.987 141.63 702.117 141.84C702.347 142.2 702.757 142.39 703.357 142.39C703.817 142.39 704.187 142.27 704.467 142.02C704.747 141.77 704.887 141.45 704.887 141.06C704.887 140.58 704.737 140.24 704.447 140.05C704.147 139.86 703.737 139.76 703.217 139.76H703.037C702.977 139.77 702.917 139.77 702.857 139.77V139C702.947 139.01 703.017 139.01 703.087 139.02H703.287C703.617 139.02 703.887 138.97 704.097 138.86C704.467 138.68 704.657 138.36 704.657 137.89C704.657 137.54 704.527 137.27 704.277 137.08C704.037 136.89 703.747 136.8 703.417 136.8C702.827 136.8 702.427 136.99 702.197 137.38C702.077 137.6 702.007 137.91 701.987 138.3H701.127C701.127 137.78 701.227 137.34 701.437 136.97C701.787 136.33 702.417 136 703.327 136C704.037 136 704.587 136.15 704.977 136.47C705.367 136.79 705.567 137.25 705.567 137.85C705.567 138.28 705.447 138.63 705.217 138.9C705.077 139.06 704.887 139.2 704.667 139.29C705.027 139.39 705.317 139.58 705.527 139.87C705.727 140.16 705.837 140.51 705.837 140.93C705.837 141.6 705.617 142.14 705.177 142.56C704.737 142.98 704.107 143.19 703.307 143.19C702.477 143.19 701.877 142.96 701.507 142.51ZM708.134 143H707.114V141.94H708.134V143ZM495.15 155.86H495.17L497.2 149.82H498.58V157H497.68V150.96H497.66L495.64 157H494.68L492.66 150.96H492.64V157H491.74V149.82H493.12L495.15 155.86ZM504.54 154.38C504.54 154.81 504.49 155.19 504.37 155.54C504.26 155.88 504.11 156.17 503.9 156.41C503.69 156.65 503.43 156.84 503.13 156.97C502.83 157.1 502.49 157.16 502.11 157.16C501.73 157.16 501.39 157.1 501.09 156.97C500.79 156.84 500.54 156.65 500.33 156.41C500.12 156.17 499.96 155.88 499.85 155.54C499.74 155.19 499.68 154.81 499.68 154.38C499.68 153.95 499.74 153.57 499.85 153.23C499.96 152.89 500.12 152.6 500.33 152.36C500.54 152.12 500.79 151.93 501.09 151.8C501.39 151.67 501.73 151.61 502.11 151.61C502.49 151.61 502.83 151.67 503.13 151.8C503.43 151.93 503.69 152.12 503.9 152.36C504.11 152.6 504.26 152.89 504.37 153.23C504.49 153.57 504.54 153.95 504.54 154.38ZM503.64 154.38C503.64 154.09 503.61 153.82 503.54 153.58C503.48 153.34 503.38 153.13 503.25 152.95C503.12 152.78 502.96 152.64 502.77 152.54C502.58 152.44 502.36 152.39 502.11 152.39C501.86 152.39 501.64 152.44 501.45 152.54C501.26 152.64 501.1 152.78 500.97 152.95C500.84 153.13 500.74 153.34 500.68 153.58C500.61 153.82 500.58 154.09 500.58 154.38C500.58 154.67 500.61 154.94 500.68 155.18C500.74 155.43 500.84 155.64 500.97 155.82C501.1 155.99 501.26 156.13 501.45 156.23C501.64 156.33 501.86 156.38 502.11 156.38C502.36 156.38 502.58 156.33 502.77 156.23C502.96 156.13 503.12 155.99 503.25 155.82C503.38 155.64 503.48 155.43 503.54 155.18C503.61 154.94 503.64 154.67 503.64 154.38ZM505.547 151.77H506.447V156.22H508.327V151.77H509.227V156.22H511.107V151.77H512.007V156.22H512.657V158.28H511.817V157H505.547V151.77ZM514.367 153.88H516.807V151.77H517.707V157H516.807V154.66H514.367V157H513.467V151.77H514.367V153.88ZM523.573 154.38C523.573 154.81 523.523 155.19 523.403 155.54C523.293 155.88 523.143 156.17 522.933 156.41C522.723 156.65 522.463 156.84 522.163 156.97C521.863 157.1 521.523 157.16 521.143 157.16C520.763 157.16 520.423 157.1 520.123 156.97C519.823 156.84 519.573 156.65 519.363 156.41C519.153 156.17 518.993 155.88 518.883 155.54C518.773 155.19 518.713 154.81 518.713 154.38C518.713 153.95 518.773 153.57 518.883 153.23C518.993 152.89 519.153 152.6 519.363 152.36C519.573 152.12 519.823 151.93 520.123 151.8C520.423 151.67 520.763 151.61 521.143 151.61C521.523 151.61 521.863 151.67 522.163 151.8C522.463 151.93 522.723 152.12 522.933 152.36C523.143 152.6 523.293 152.89 523.403 153.23C523.523 153.57 523.573 153.95 523.573 154.38ZM522.673 154.38C522.673 154.09 522.643 153.82 522.573 153.58C522.513 153.34 522.413 153.13 522.283 152.95C522.153 152.78 521.993 152.64 521.803 152.54C521.613 152.44 521.393 152.39 521.143 152.39C520.893 152.39 520.673 152.44 520.483 152.54C520.293 152.64 520.133 152.78 520.003 152.95C519.873 153.13 519.773 153.34 519.713 153.58C519.643 153.82 519.613 154.09 519.613 154.38C519.613 154.67 519.643 154.94 519.713 155.18C519.773 155.43 519.873 155.64 520.003 155.82C520.133 155.99 520.293 156.13 520.483 156.23C520.673 156.33 520.893 156.38 521.143 156.38C521.393 156.38 521.613 156.33 521.803 156.23C521.993 156.13 522.153 155.99 522.283 155.82C522.413 155.64 522.513 155.43 522.573 155.18C522.643 154.94 522.673 154.67 522.673 154.38ZM528.69 155.16C528.68 155.29 528.65 155.42 528.62 155.57C528.58 155.73 528.52 155.87 528.45 156.02C528.38 156.17 528.29 156.31 528.18 156.45C528.07 156.58 527.93 156.71 527.77 156.81C527.61 156.92 527.42 157 527.2 157.07C526.98 157.13 526.73 157.16 526.45 157.16C526.3 157.16 526.14 157.14 525.97 157.11C525.79 157.07 525.63 157 525.47 156.92C525.31 156.83 525.16 156.72 525.01 156.58C524.87 156.44 524.74 156.27 524.63 156.06C524.52 155.86 524.43 155.62 524.37 155.34C524.31 155.08 524.27 154.76 524.27 154.41C524.27 153.98 524.34 153.59 524.46 153.24C524.58 152.89 524.75 152.6 524.96 152.36C525.16 152.12 525.4 151.94 525.68 151.8C525.95 151.67 526.24 151.61 526.54 151.61C526.82 151.61 527.06 151.64 527.27 151.7C527.48 151.76 527.66 151.83 527.82 151.93C527.97 152.03 528.1 152.14 528.21 152.27C528.32 152.4 528.41 152.53 528.48 152.67C528.54 152.82 528.59 152.96 528.63 153.11C528.66 153.25 528.68 153.4 528.69 153.53H527.85C527.81 153.17 527.68 152.89 527.48 152.69C527.28 152.49 527 152.39 526.64 152.39C526.39 152.39 526.18 152.44 526 152.54C525.81 152.64 525.66 152.78 525.54 152.96C525.41 153.14 525.32 153.36 525.26 153.62C525.2 153.88 525.17 154.15 525.17 154.46C525.17 154.81 525.2 155.1 525.27 155.35C525.33 155.6 525.42 155.8 525.55 155.96C525.67 156.13 525.81 156.25 525.99 156.32C526.16 156.4 526.36 156.44 526.58 156.44C526.74 156.44 526.88 156.41 527.03 156.35C527.17 156.3 527.29 156.21 527.4 156.1C527.51 155.99 527.61 155.86 527.68 155.7C527.76 155.54 527.82 155.36 527.85 155.16H528.69ZM529.17 151.77H533.67V152.55H531.87V157H530.97V152.55H529.17V151.77ZM535.48 153.74H536.93C537.22 153.74 537.47 153.78 537.69 153.85C537.92 153.93 538.11 154.04 538.27 154.18C538.42 154.32 538.54 154.49 538.63 154.69C538.71 154.89 538.75 155.12 538.75 155.37C538.75 155.62 538.71 155.85 538.63 156.05C538.54 156.25 538.42 156.42 538.27 156.56C538.11 156.7 537.92 156.81 537.69 156.89C537.47 156.96 537.22 157 536.93 157H534.58V151.77H535.48V153.74ZM536.75 156.28C536.91 156.28 537.05 156.27 537.19 156.23C537.32 156.2 537.44 156.15 537.54 156.07C537.64 156 537.71 155.91 537.77 155.79C537.82 155.68 537.85 155.54 537.85 155.37C537.85 155.21 537.82 155.07 537.77 154.95C537.71 154.84 537.63 154.74 537.53 154.67C537.43 154.6 537.3 154.54 537.16 154.51C537.01 154.48 536.85 154.46 536.67 154.46H535.48V156.28H536.75ZM545.613 152.55H543.263V157H542.363V151.77H545.613V152.55ZM550.846 155.33C550.816 155.56 550.736 155.78 550.616 156C550.496 156.22 550.336 156.41 550.136 156.58C549.946 156.76 549.716 156.9 549.456 157C549.186 157.11 548.886 157.16 548.566 157.16C548.216 157.16 547.896 157.1 547.596 156.99C547.296 156.87 547.036 156.7 546.826 156.46C546.606 156.23 546.436 155.94 546.316 155.59C546.186 155.24 546.126 154.82 546.126 154.35C546.126 154.03 546.156 153.74 546.236 153.48C546.306 153.22 546.396 152.99 546.516 152.79C546.636 152.59 546.776 152.41 546.926 152.26C547.086 152.11 547.246 151.99 547.426 151.89C547.596 151.8 547.776 151.73 547.956 151.68C548.136 151.63 548.316 151.61 548.486 151.61C548.846 151.61 549.166 151.66 549.466 151.77C549.766 151.88 550.016 152.04 550.236 152.26C550.446 152.48 550.606 152.76 550.736 153.08C550.846 153.42 550.906 153.81 550.906 154.25V154.7H547.086C547.086 154.95 547.126 155.18 547.196 155.39C547.256 155.6 547.356 155.77 547.486 155.92C547.606 156.07 547.766 156.18 547.946 156.26C548.126 156.34 548.326 156.38 548.556 156.38C548.786 156.38 548.986 156.35 549.146 156.28C549.306 156.22 549.436 156.14 549.546 156.03C549.656 155.93 549.736 155.82 549.806 155.7C549.876 155.57 549.926 155.45 549.976 155.33H550.846ZM550.006 153.98C549.996 153.73 549.956 153.5 549.896 153.3C549.816 153.1 549.716 152.94 549.596 152.8C549.476 152.67 549.316 152.57 549.146 152.49C548.966 152.42 548.776 152.39 548.556 152.39C548.356 152.39 548.166 152.43 547.996 152.51C547.816 152.59 547.666 152.7 547.536 152.84C547.406 152.98 547.306 153.15 547.226 153.34C547.146 153.54 547.096 153.75 547.086 153.98H550.006ZM552.853 153.88H555.293V151.77H556.193V157H555.293V154.66H552.853V157H551.953V151.77H552.853V153.88ZM561.96 155.33C561.93 155.56 561.85 155.78 561.73 156C561.61 156.22 561.45 156.41 561.25 156.58C561.06 156.76 560.83 156.9 560.57 157C560.3 157.11 560 157.16 559.68 157.16C559.33 157.16 559.01 157.1 558.71 156.99C558.41 156.87 558.15 156.7 557.94 156.46C557.72 156.23 557.55 155.94 557.43 155.59C557.3 155.24 557.24 154.82 557.24 154.35C557.24 154.03 557.27 153.74 557.35 153.48C557.42 153.22 557.51 152.99 557.63 152.79C557.75 152.59 557.89 152.41 558.04 152.26C558.2 152.11 558.36 151.99 558.54 151.89C558.71 151.8 558.89 151.73 559.07 151.68C559.25 151.63 559.43 151.61 559.6 151.61C559.96 151.61 560.28 151.66 560.58 151.77C560.88 151.88 561.13 152.04 561.35 152.26C561.56 152.48 561.72 152.76 561.85 153.08C561.96 153.42 562.02 153.81 562.02 154.25V154.7H558.2C558.2 154.95 558.24 155.18 558.31 155.39C558.37 155.6 558.47 155.77 558.6 155.92C558.72 156.07 558.88 156.18 559.06 156.26C559.24 156.34 559.44 156.38 559.67 156.38C559.9 156.38 560.1 156.35 560.26 156.28C560.42 156.22 560.55 156.14 560.66 156.03C560.77 155.93 560.85 155.82 560.92 155.7C560.99 155.57 561.04 155.45 561.09 155.33H561.96ZM561.12 153.98C561.11 153.73 561.07 153.5 561.01 153.3C560.93 153.1 560.83 152.94 560.71 152.8C560.59 152.67 560.43 152.57 560.26 152.49C560.08 152.42 559.89 152.39 559.67 152.39C559.47 152.39 559.28 152.43 559.11 152.51C558.93 152.59 558.78 152.7 558.65 152.84C558.52 152.98 558.42 153.15 558.34 153.34C558.26 153.54 558.21 153.75 558.2 153.98H561.12ZM563.916 152.49H563.936C563.996 152.37 564.066 152.25 564.156 152.15C564.246 152.04 564.356 151.95 564.486 151.86C564.606 151.79 564.746 151.72 564.916 151.68C565.076 151.63 565.266 151.61 565.476 151.61C565.756 151.61 566.026 151.66 566.286 151.77C566.546 151.88 566.766 152.04 566.966 152.25C567.166 152.47 567.326 152.74 567.436 153.06C567.556 153.39 567.616 153.76 567.616 154.19C567.616 154.73 567.566 155.18 567.456 155.56C567.346 155.94 567.196 156.24 566.986 156.48C566.786 156.72 566.546 156.89 566.266 157C565.976 157.11 565.666 157.16 565.316 157.16C565.146 157.16 564.986 157.14 564.836 157.09C564.686 157.05 564.546 156.99 564.436 156.91C564.306 156.84 564.206 156.76 564.126 156.67C564.046 156.58 563.976 156.49 563.936 156.41H563.916V159.06H563.016V151.77H563.916V152.49ZM563.896 154.41C563.896 154.7 563.926 154.95 563.976 155.19C564.036 155.43 564.116 155.64 564.236 155.82C564.346 155.99 564.496 156.13 564.676 156.23C564.846 156.33 565.046 156.38 565.286 156.38C565.536 156.38 565.746 156.33 565.936 156.23C566.116 156.13 566.256 155.99 566.376 155.82C566.496 155.64 566.576 155.43 566.636 155.19C566.686 154.95 566.716 154.7 566.716 154.41C566.716 154.11 566.686 153.85 566.636 153.6C566.576 153.35 566.496 153.14 566.376 152.96C566.256 152.78 566.116 152.64 565.936 152.54C565.746 152.44 565.536 152.39 565.286 152.39C565.046 152.39 564.846 152.44 564.676 152.54C564.496 152.64 564.346 152.78 564.236 152.96C564.116 153.14 564.036 153.35 563.976 153.6C563.926 153.85 563.896 154.11 563.896 154.41ZM568.613 153.34C568.623 153.02 568.683 152.75 568.793 152.53C568.903 152.31 569.053 152.13 569.243 152C569.433 151.86 569.653 151.76 569.913 151.7C570.173 151.64 570.453 151.61 570.763 151.61C571.013 151.61 571.263 151.63 571.503 151.69C571.743 151.74 571.953 151.82 572.133 151.94C572.323 152.05 572.473 152.21 572.583 152.39C572.703 152.57 572.753 152.8 572.753 153.06V156.1C572.753 156.18 572.773 156.26 572.823 156.32C572.863 156.38 572.943 156.41 573.043 156.41C573.083 156.41 573.133 156.4 573.183 156.39C573.233 156.39 573.283 156.38 573.333 156.37V156.99C573.263 157.01 573.183 157.03 573.113 157.04C573.043 157.06 572.953 157.07 572.853 157.07C572.693 157.07 572.563 157.05 572.453 157.03C572.333 157 572.243 156.96 572.163 156.9C572.093 156.84 572.033 156.76 571.983 156.66C571.943 156.57 571.923 156.45 571.903 156.31C571.793 156.43 571.673 156.54 571.553 156.64C571.433 156.75 571.293 156.84 571.133 156.91C570.983 156.99 570.813 157.05 570.623 157.1C570.433 157.14 570.223 157.16 569.983 157.16C569.783 157.16 569.593 157.13 569.403 157.06C569.213 157 569.033 156.9 568.883 156.78C568.733 156.65 568.613 156.49 568.523 156.3C568.423 156.12 568.383 155.9 568.383 155.65C568.383 155.38 568.423 155.15 568.523 154.95C568.613 154.75 568.733 154.59 568.873 154.46C569.023 154.32 569.193 154.23 569.383 154.15C569.573 154.08 569.763 154.04 569.953 154.01L571.423 153.83C571.563 153.82 571.673 153.76 571.753 153.67C571.833 153.57 571.873 153.43 571.873 153.22C571.873 152.9 571.773 152.68 571.563 152.54C571.353 152.4 571.063 152.33 570.673 152.33C570.273 152.33 569.983 152.42 569.783 152.58C569.593 152.75 569.473 153 569.453 153.34H568.613ZM571.853 154.34C571.783 154.39 571.693 154.43 571.593 154.47C571.483 154.5 571.363 154.53 571.243 154.55C571.113 154.58 570.973 154.6 570.833 154.61L570.403 154.67C570.243 154.7 570.093 154.72 569.953 154.77C569.823 154.81 569.703 154.87 569.603 154.93C569.493 155 569.423 155.09 569.363 155.18C569.313 155.28 569.283 155.39 569.283 155.52C569.283 155.67 569.303 155.8 569.353 155.92C569.403 156.03 569.463 156.13 569.553 156.2C569.633 156.28 569.733 156.34 569.843 156.38C569.963 156.42 570.093 156.44 570.233 156.44C570.323 156.44 570.423 156.43 570.533 156.4C570.653 156.38 570.763 156.36 570.883 156.31C571.013 156.27 571.123 156.21 571.243 156.15C571.353 156.08 571.463 156 571.553 155.91C571.643 155.81 571.713 155.71 571.773 155.58C571.823 155.46 571.853 155.33 571.853 155.18V154.34ZM573.77 151.77H578.27V152.55H576.47V157H575.57V152.55H573.77V151.77ZM583.73 154.38C583.73 154.81 583.68 155.19 583.56 155.54C583.45 155.88 583.3 156.17 583.09 156.41C582.88 156.65 582.62 156.84 582.32 156.97C582.02 157.1 581.68 157.16 581.3 157.16C580.92 157.16 580.58 157.1 580.28 156.97C579.98 156.84 579.73 156.65 579.52 156.41C579.31 156.17 579.15 155.88 579.04 155.54C578.93 155.19 578.87 154.81 578.87 154.38C578.87 153.95 578.93 153.57 579.04 153.23C579.15 152.89 579.31 152.6 579.52 152.36C579.73 152.12 579.98 151.93 580.28 151.8C580.58 151.67 580.92 151.61 581.3 151.61C581.68 151.61 582.02 151.67 582.32 151.8C582.62 151.93 582.88 152.12 583.09 152.36C583.3 152.6 583.45 152.89 583.56 153.23C583.68 153.57 583.73 153.95 583.73 154.38ZM582.83 154.38C582.83 154.09 582.8 153.82 582.73 153.58C582.67 153.34 582.57 153.13 582.44 152.95C582.31 152.78 582.15 152.64 581.96 152.54C581.77 152.44 581.55 152.39 581.3 152.39C581.05 152.39 580.83 152.44 580.64 152.54C580.45 152.64 580.29 152.78 580.16 152.95C580.03 153.13 579.93 153.34 579.87 153.58C579.8 153.82 579.77 154.09 579.77 154.38C579.77 154.67 579.8 154.94 579.87 155.18C579.93 155.43 580.03 155.64 580.16 155.82C580.29 155.99 580.45 156.13 580.64 156.23C580.83 156.33 581.05 156.38 581.3 156.38C581.55 156.38 581.77 156.33 581.96 156.23C582.15 156.13 582.31 155.99 582.44 155.82C582.57 155.64 582.67 155.43 582.73 155.18C582.8 154.94 582.83 154.67 582.83 154.38ZM585.586 152.49H585.606C585.666 152.37 585.736 152.25 585.826 152.15C585.916 152.04 586.026 151.95 586.156 151.86C586.276 151.79 586.416 151.72 586.586 151.68C586.746 151.63 586.936 151.61 587.146 151.61C587.426 151.61 587.696 151.66 587.956 151.77C588.216 151.88 588.436 152.04 588.636 152.25C588.836 152.47 588.996 152.74 589.106 153.06C589.226 153.39 589.286 153.76 589.286 154.19C589.286 154.73 589.236 155.18 589.126 155.56C589.016 155.94 588.866 156.24 588.656 156.48C588.456 156.72 588.216 156.89 587.936 157C587.646 157.11 587.336 157.16 586.986 157.16C586.816 157.16 586.656 157.14 586.506 157.09C586.356 157.05 586.216 156.99 586.106 156.91C585.976 156.84 585.876 156.76 585.796 156.67C585.716 156.58 585.646 156.49 585.606 156.41H585.586V159.06H584.686V151.77H585.586V152.49ZM585.566 154.41C585.566 154.7 585.596 154.95 585.646 155.19C585.706 155.43 585.786 155.64 585.906 155.82C586.016 155.99 586.166 156.13 586.346 156.23C586.516 156.33 586.716 156.38 586.956 156.38C587.206 156.38 587.416 156.33 587.606 156.23C587.786 156.13 587.926 155.99 588.046 155.82C588.166 155.64 588.246 155.43 588.306 155.19C588.356 154.95 588.386 154.7 588.386 154.41C588.386 154.11 588.356 153.85 588.306 153.6C588.246 153.35 588.166 153.14 588.046 152.96C587.926 152.78 587.786 152.64 587.606 152.54C587.416 152.44 587.206 152.39 586.956 152.39C586.716 152.39 586.516 152.44 586.346 152.54C586.166 152.64 586.016 152.78 585.906 152.96C585.786 153.14 585.706 153.35 585.646 153.6C585.596 153.85 585.566 154.11 585.566 154.41ZM590.283 153.34C590.293 153.02 590.353 152.75 590.463 152.53C590.573 152.31 590.723 152.13 590.913 152C591.103 151.86 591.323 151.76 591.583 151.7C591.843 151.64 592.123 151.61 592.433 151.61C592.683 151.61 592.933 151.63 593.173 151.69C593.413 151.74 593.623 151.82 593.803 151.94C593.993 152.05 594.143 152.21 594.253 152.39C594.373 152.57 594.423 152.8 594.423 153.06V156.1C594.423 156.18 594.443 156.26 594.493 156.32C594.533 156.38 594.613 156.41 594.713 156.41C594.753 156.41 594.803 156.4 594.853 156.39C594.903 156.39 594.953 156.38 595.003 156.37V156.99C594.933 157.01 594.853 157.03 594.783 157.04C594.713 157.06 594.623 157.07 594.523 157.07C594.363 157.07 594.233 157.05 594.123 157.03C594.003 157 593.913 156.96 593.833 156.9C593.763 156.84 593.703 156.76 593.653 156.66C593.613 156.57 593.593 156.45 593.573 156.31C593.463 156.43 593.343 156.54 593.223 156.64C593.103 156.75 592.963 156.84 592.803 156.91C592.653 156.99 592.483 157.05 592.293 157.1C592.103 157.14 591.893 157.16 591.653 157.16C591.453 157.16 591.263 157.13 591.073 157.06C590.883 157 590.703 156.9 590.553 156.78C590.403 156.65 590.283 156.49 590.193 156.3C590.093 156.12 590.053 155.9 590.053 155.65C590.053 155.38 590.093 155.15 590.193 154.95C590.283 154.75 590.403 154.59 590.543 154.46C590.693 154.32 590.863 154.23 591.053 154.15C591.243 154.08 591.433 154.04 591.623 154.01L593.093 153.83C593.233 153.82 593.343 153.76 593.423 153.67C593.503 153.57 593.543 153.43 593.543 153.22C593.543 152.9 593.443 152.68 593.233 152.54C593.023 152.4 592.733 152.33 592.343 152.33C591.943 152.33 591.653 152.42 591.453 152.58C591.263 152.75 591.143 153 591.123 153.34H590.283ZM593.523 154.34C593.453 154.39 593.363 154.43 593.263 154.47C593.153 154.5 593.033 154.53 592.913 154.55C592.783 154.58 592.643 154.6 592.503 154.61L592.073 154.67C591.913 154.7 591.763 154.72 591.623 154.77C591.493 154.81 591.373 154.87 591.273 154.93C591.163 155 591.093 155.09 591.033 155.18C590.983 155.28 590.953 155.39 590.953 155.52C590.953 155.67 590.973 155.8 591.023 155.92C591.073 156.03 591.133 156.13 591.223 156.2C591.303 156.28 591.403 156.34 591.513 156.38C591.633 156.42 591.763 156.44 591.903 156.44C591.993 156.44 592.093 156.43 592.203 156.4C592.323 156.38 592.433 156.36 592.553 156.31C592.683 156.27 592.793 156.21 592.913 156.15C593.023 156.08 593.133 156 593.223 155.91C593.313 155.81 593.383 155.71 593.443 155.58C593.493 155.46 593.523 155.33 593.523 155.18V154.34ZM597.319 152.9H596.299V151.84H597.319V152.9ZM597.319 157H596.299V155.94H597.319V157ZM601.996 155.22C602.046 155.72 602.286 156.07 602.686 156.26C602.896 156.36 603.136 156.4 603.416 156.4C603.936 156.4 604.316 156.24 604.566 155.91C604.816 155.57 604.946 155.21 604.946 154.8C604.946 154.31 604.796 153.94 604.506 153.67C604.206 153.4 603.846 153.27 603.426 153.27C603.126 153.27 602.866 153.33 602.646 153.45C602.426 153.56 602.246 153.72 602.096 153.93L601.336 153.89L601.866 150.13H605.496V150.97H602.526L602.226 152.92C602.386 152.8 602.546 152.7 602.686 152.64C602.946 152.53 603.256 152.48 603.596 152.48C604.236 152.48 604.776 152.68 605.226 153.1C605.666 153.51 605.896 154.04 605.896 154.67C605.896 155.33 605.686 155.92 605.286 156.42C604.876 156.92 604.216 157.18 603.326 157.18C602.756 157.18 602.246 157.01 601.816 156.69C601.376 156.38 601.136 155.88 601.076 155.22H601.996ZM610.983 151.13C611.293 151.7 611.452 152.49 611.452 153.49C611.452 154.45 611.312 155.23 611.023 155.85C610.613 156.75 609.943 157.19 609.013 157.19C608.173 157.19 607.553 156.82 607.143 156.1C606.793 155.49 606.623 154.67 606.623 153.65C606.623 152.85 606.733 152.17 606.933 151.6C607.323 150.54 608.013 150.01 609.023 150.01C609.923 150.01 610.573 150.38 610.983 151.13ZM610.093 155.78C610.363 155.38 610.503 154.63 610.503 153.53C610.503 152.73 610.403 152.08 610.213 151.57C610.013 151.05 609.633 150.8 609.073 150.8C608.553 150.8 608.183 151.04 607.943 151.53C607.703 152.01 607.573 152.73 607.573 153.68C607.573 154.39 607.653 154.96 607.803 155.4C608.043 156.06 608.443 156.39 609.013 156.39C609.463 156.39 609.833 156.19 610.093 155.78ZM616.539 151.13C616.849 151.7 617.009 152.49 617.009 153.49C617.009 154.45 616.869 155.23 616.579 155.85C616.169 156.75 615.499 157.19 614.569 157.19C613.729 157.19 613.109 156.82 612.699 156.1C612.349 155.49 612.179 154.67 612.179 153.65C612.179 152.85 612.289 152.17 612.489 151.6C612.879 150.54 613.569 150.01 614.579 150.01C615.479 150.01 616.129 150.38 616.539 151.13ZM615.649 155.78C615.919 155.38 616.059 154.63 616.059 153.53C616.059 152.73 615.959 152.08 615.769 151.57C615.569 151.05 615.189 150.8 614.629 150.8C614.109 150.8 613.739 151.04 613.499 151.53C613.259 152.01 613.129 152.73 613.129 153.68C613.129 154.39 613.209 154.96 613.359 155.4C613.599 156.06 613.999 156.39 614.569 156.39C615.019 156.39 615.389 156.19 615.649 155.78ZM622.096 151.13C622.406 151.7 622.566 152.49 622.566 153.49C622.566 154.45 622.426 155.23 622.136 155.85C621.726 156.75 621.056 157.19 620.126 157.19C619.286 157.19 618.666 156.82 618.256 156.1C617.906 155.49 617.736 154.67 617.736 153.65C617.736 152.85 617.846 152.17 618.046 151.6C618.436 150.54 619.126 150.01 620.136 150.01C621.036 150.01 621.686 150.38 622.096 151.13ZM621.206 155.78C621.476 155.38 621.616 154.63 621.616 153.53C621.616 152.73 621.516 152.08 621.326 151.57C621.126 151.05 620.746 150.8 620.186 150.8C619.666 150.8 619.296 151.04 619.056 151.53C618.816 152.01 618.686 152.73 618.686 153.68C618.686 154.39 618.766 154.96 618.916 155.4C619.156 156.06 619.556 156.39 620.126 156.39C620.576 156.39 620.946 156.19 621.206 155.78ZM629.916 155.86H629.936L631.966 149.82H633.346V157H632.446V150.96H632.426L630.406 157H629.446L627.426 150.96H627.406V157H626.506V149.82H627.886L629.916 155.86ZM634.926 156.16C634.996 156 635.056 155.84 635.116 155.68C635.176 155.52 635.226 155.34 635.286 155.13C635.336 154.93 635.376 154.7 635.426 154.44C635.466 154.17 635.506 153.86 635.546 153.5C635.586 153.12 635.626 152.74 635.656 152.37C635.676 152 635.706 151.66 635.716 151.34C635.736 151.01 635.746 150.72 635.746 150.46C635.756 150.2 635.756 149.99 635.756 149.82H640.266V156.16H641.076V158.54H640.176V157H635.176V158.54H634.276V156.16H634.926ZM636.656 150.66C636.656 151.13 636.636 151.59 636.596 152.05C636.566 152.52 636.516 152.98 636.466 153.45C636.426 153.82 636.386 154.13 636.356 154.39C636.316 154.65 636.276 154.88 636.236 155.08C636.196 155.28 636.156 155.47 636.106 155.63L635.926 156.16H639.286V150.66H636.656ZM647.637 151.77H648.717L646.667 154.25L648.797 157H647.687L645.917 154.62H645.467V157H644.567V154.62H644.107L642.327 157H641.217L643.377 154.25L641.327 151.77H642.417L644.107 153.91H644.567V151.77H645.467V153.91H645.917L647.637 151.77ZM649.65 157H648.91L651.19 149.83H651.93L649.65 157ZM653.253 156.22H655.693V151.77H656.593V156.22H657.243V158.28H656.403V157H652.353V151.77H653.253V156.22ZM658.966 155.78H658.986L661.556 151.77H662.586V157H661.676V152.99H661.656L659.096 157H658.066V151.77H658.966V155.78ZM664.796 154.3L667.436 151.77H668.616L666.156 154.08L668.656 157H667.496L665.456 154.63L664.796 155.18V157H663.896V151.77H664.796V154.3ZM670.855 153.81C670.835 154.44 670.785 154.97 670.705 155.39C670.625 155.82 670.525 156.16 670.385 156.42C670.255 156.68 670.085 156.86 669.895 156.97C669.705 157.07 669.485 157.13 669.235 157.13C669.145 157.13 669.065 157.11 669.005 157.09C668.935 157.06 668.885 157.03 668.845 157V156.21C668.975 156.26 669.085 156.28 669.185 156.28C669.255 156.28 669.325 156.27 669.385 156.25C669.445 156.22 669.505 156.18 669.565 156.12C669.615 156.05 669.675 155.96 669.725 155.84C669.765 155.72 669.815 155.56 669.855 155.37C669.885 155.18 669.925 154.95 669.945 154.68C669.965 154.4 669.985 154.08 669.995 153.7L670.035 151.77H673.795V157H672.895V152.55H670.895L670.855 153.81ZM676.327 157H675.307V155.94H676.327V157ZM681.723 152.78H685.543V149.82H686.503V157H685.543V153.62H681.723V157H680.763V149.82H681.723V152.78ZM692.35 155.33C692.32 155.56 692.24 155.78 692.12 156C692 156.22 691.84 156.41 691.64 156.58C691.45 156.76 691.22 156.9 690.96 157C690.69 157.11 690.39 157.16 690.07 157.16C689.72 157.16 689.4 157.1 689.1 156.99C688.8 156.87 688.54 156.7 688.33 156.46C688.11 156.23 687.94 155.94 687.82 155.59C687.69 155.24 687.63 154.82 687.63 154.35C687.63 154.03 687.66 153.74 687.74 153.48C687.81 153.22 687.9 152.99 688.02 152.79C688.14 152.59 688.28 152.41 688.43 152.26C688.59 152.11 688.75 151.99 688.93 151.89C689.1 151.8 689.28 151.73 689.46 151.68C689.64 151.63 689.82 151.61 689.99 151.61C690.35 151.61 690.67 151.66 690.97 151.77C691.27 151.88 691.52 152.04 691.74 152.26C691.95 152.48 692.11 152.76 692.24 153.08C692.35 153.42 692.41 153.81 692.41 154.25V154.7H688.59C688.59 154.95 688.63 155.18 688.7 155.39C688.76 155.6 688.86 155.77 688.99 155.92C689.11 156.07 689.27 156.18 689.45 156.26C689.63 156.34 689.83 156.38 690.06 156.38C690.29 156.38 690.49 156.35 690.65 156.28C690.81 156.22 690.94 156.14 691.05 156.03C691.16 155.93 691.24 155.82 691.31 155.7C691.38 155.57 691.43 155.45 691.48 155.33H692.35ZM691.51 153.98C691.5 153.73 691.46 153.5 691.4 153.3C691.32 153.1 691.22 152.94 691.1 152.8C690.98 152.67 690.82 152.57 690.65 152.49C690.47 152.42 690.28 152.39 690.06 152.39C689.86 152.39 689.67 152.43 689.5 152.51C689.32 152.59 689.17 152.7 689.04 152.84C688.91 152.98 688.81 153.15 688.73 153.34C688.65 153.54 688.6 153.75 688.59 153.98H691.51ZM698.007 154.38C698.007 154.81 697.957 155.19 697.837 155.54C697.727 155.88 697.577 156.17 697.367 156.41C697.157 156.65 696.897 156.84 696.597 156.97C696.297 157.1 695.957 157.16 695.577 157.16C695.197 157.16 694.857 157.1 694.557 156.97C694.257 156.84 694.007 156.65 693.797 156.41C693.587 156.17 693.427 155.88 693.317 155.54C693.207 155.19 693.147 154.81 693.147 154.38C693.147 153.95 693.207 153.57 693.317 153.23C693.427 152.89 693.587 152.6 693.797 152.36C694.007 152.12 694.257 151.93 694.557 151.8C694.857 151.67 695.197 151.61 695.577 151.61C695.957 151.61 696.297 151.67 696.597 151.8C696.897 151.93 697.157 152.12 697.367 152.36C697.577 152.6 697.727 152.89 697.837 153.23C697.957 153.57 698.007 153.95 698.007 154.38ZM697.107 154.38C697.107 154.09 697.077 153.82 697.007 153.58C696.947 153.34 696.847 153.13 696.717 152.95C696.587 152.78 696.427 152.64 696.237 152.54C696.047 152.44 695.827 152.39 695.577 152.39C695.327 152.39 695.107 152.44 694.917 152.54C694.727 152.64 694.567 152.78 694.437 152.95C694.307 153.13 694.207 153.34 694.147 153.58C694.077 153.82 694.047 154.09 694.047 154.38C694.047 154.67 694.077 154.94 694.147 155.18C694.207 155.43 694.307 155.64 694.437 155.82C694.567 155.99 694.727 156.13 694.917 156.23C695.107 156.33 695.327 156.38 695.577 156.38C695.827 156.38 696.047 156.33 696.237 156.23C696.427 156.13 696.587 155.99 696.717 155.82C696.847 155.64 696.947 155.43 697.007 155.18C697.077 154.94 697.107 154.67 697.107 154.38ZM703.074 149.76C703.074 149.81 703.064 149.87 703.054 149.93C703.034 150.01 703.014 150.08 702.984 150.16C702.944 150.24 702.904 150.32 702.854 150.39C702.794 150.48 702.714 150.55 702.624 150.62C702.564 150.65 702.524 150.69 702.484 150.71C702.434 150.74 702.384 150.76 702.314 150.78C702.254 150.8 702.174 150.81 702.074 150.83C701.964 150.84 701.834 150.85 701.664 150.85L701.294 150.86C701.044 150.87 700.814 150.92 700.614 151.01C700.404 151.11 700.224 151.24 700.074 151.41C699.914 151.58 699.794 151.79 699.684 152.03C699.584 152.27 699.514 152.54 699.464 152.84C699.534 152.71 699.614 152.58 699.714 152.45C699.814 152.33 699.944 152.22 700.094 152.12C700.244 152.02 700.424 151.94 700.624 151.88C700.824 151.82 701.054 151.79 701.324 151.79C701.624 151.79 701.914 151.84 702.184 151.95C702.454 152.06 702.694 152.22 702.904 152.43C703.104 152.65 703.264 152.92 703.384 153.24C703.504 153.55 703.564 153.92 703.564 154.35C703.564 154.48 703.554 154.64 703.534 154.83C703.514 155.02 703.474 155.22 703.414 155.43C703.354 155.64 703.274 155.85 703.164 156.05C703.054 156.26 702.914 156.45 702.734 156.61C702.554 156.77 702.334 156.9 702.074 157.01C701.814 157.11 701.504 157.16 701.144 157.16C700.994 157.16 700.834 157.15 700.664 157.13C700.494 157.1 700.334 157.05 700.164 156.99C699.994 156.93 699.834 156.83 699.674 156.72C699.514 156.6 699.374 156.45 699.244 156.27C699.184 156.17 699.114 156.07 699.054 155.95C698.984 155.83 698.934 155.69 698.874 155.52C698.824 155.35 698.784 155.15 698.754 154.92C698.724 154.69 698.704 154.42 698.704 154.1C698.704 153.89 698.714 153.66 698.734 153.39C698.754 153.13 698.784 152.86 698.834 152.59C698.884 152.31 698.954 152.05 699.034 151.79C699.114 151.54 699.214 151.31 699.344 151.12C699.484 150.91 699.624 150.75 699.774 150.61C699.924 150.48 700.084 150.38 700.254 150.31C700.424 150.23 700.604 150.18 700.804 150.14C700.994 150.11 701.204 150.09 701.434 150.08L701.754 150.07C701.854 150.07 701.944 150.06 702.024 150.05C702.094 150.05 702.154 150.03 702.204 150.01C702.254 149.99 702.294 149.96 702.314 149.92C702.344 149.89 702.374 149.83 702.394 149.76H703.074ZM699.604 154.48C699.604 154.58 699.604 154.7 699.624 154.83C699.634 154.96 699.654 155.1 699.694 155.24C699.724 155.39 699.784 155.54 699.844 155.68C699.914 155.82 700.014 155.95 700.124 156.06C700.234 156.17 700.374 156.26 700.534 156.33C700.704 156.4 700.904 156.44 701.134 156.44C701.394 156.44 701.604 156.39 701.784 156.31C701.954 156.23 702.104 156.12 702.214 155.99C702.324 155.86 702.414 155.72 702.484 155.55C702.534 155.39 702.584 155.24 702.614 155.09C702.634 154.93 702.654 154.8 702.664 154.67V154.39C702.664 154.15 702.644 153.92 702.584 153.69C702.534 153.46 702.444 153.26 702.324 153.08C702.204 152.91 702.054 152.77 701.864 152.66C701.674 152.55 701.444 152.5 701.164 152.5C700.894 152.5 700.654 152.55 700.464 152.65C700.264 152.76 700.104 152.9 699.984 153.08C699.854 153.26 699.764 153.47 699.694 153.71C699.634 153.95 699.604 154.21 699.604 154.48ZM704.01 157L705.84 154.32L704.1 151.77H705.23L706.47 153.59L707.65 151.77H708.73L706.96 154.32L708.81 157H707.68L706.35 155.05L705.12 157H704.01ZM714.12 154.38C714.12 154.81 714.07 155.19 713.95 155.54C713.84 155.88 713.69 156.17 713.48 156.41C713.27 156.65 713.01 156.84 712.71 156.97C712.41 157.1 712.07 157.16 711.69 157.16C711.31 157.16 710.97 157.1 710.67 156.97C710.37 156.84 710.12 156.65 709.91 156.41C709.7 156.17 709.54 155.88 709.43 155.54C709.32 155.19 709.26 154.81 709.26 154.38C709.26 153.95 709.32 153.57 709.43 153.23C709.54 152.89 709.7 152.6 709.91 152.36C710.12 152.12 710.37 151.93 710.67 151.8C710.97 151.67 711.31 151.61 711.69 151.61C712.07 151.61 712.41 151.67 712.71 151.8C713.01 151.93 713.27 152.12 713.48 152.36C713.69 152.6 713.84 152.89 713.95 153.23C714.07 153.57 714.12 153.95 714.12 154.38ZM713.22 154.38C713.22 154.09 713.19 153.82 713.12 153.58C713.06 153.34 712.96 153.13 712.83 152.95C712.7 152.78 712.54 152.64 712.35 152.54C712.16 152.44 711.94 152.39 711.69 152.39C711.44 152.39 711.22 152.44 711.03 152.54C710.84 152.64 710.68 152.78 710.55 152.95C710.42 153.13 710.32 153.34 710.26 153.58C710.19 153.82 710.16 154.09 710.16 154.38C710.16 154.67 710.19 154.94 710.26 155.18C710.32 155.43 710.42 155.64 710.55 155.82C710.68 155.99 710.84 156.13 711.03 156.23C711.22 156.33 711.44 156.38 711.69 156.38C711.94 156.38 712.16 156.33 712.35 156.23C712.54 156.13 712.7 155.99 712.83 155.82C712.96 155.64 713.06 155.43 713.12 155.18C713.19 154.94 713.22 154.67 713.22 154.38ZM715.447 158.28H714.607V156.22H715.297C715.437 155.87 715.547 155.51 715.637 155.14C715.717 154.77 715.787 154.41 715.827 154.03C715.877 153.66 715.907 153.28 715.917 152.91C715.927 152.53 715.937 152.15 715.937 151.77H719.587V156.22H720.327V158.28H719.487V157H715.447V158.28ZM716.797 152.55C716.767 152.85 716.757 153.15 716.727 153.46C716.707 153.78 716.667 154.09 716.627 154.4C716.587 154.72 716.537 155.03 716.467 155.33C716.397 155.64 716.317 155.94 716.207 156.22H718.687V152.55H716.797ZM722.091 155.78H722.111L724.681 151.77H725.711V157H724.801V152.99H724.781L722.221 157H721.191V151.77H722.091V155.78ZM729.711 156.06H729.731L731.131 151.77H732.361V157H731.521V152.79H731.501L730.121 157H729.261L727.881 152.79H727.861V157H727.021V151.77H728.331L729.711 156.06ZM738.231 154.38C738.231 154.81 738.181 155.19 738.061 155.54C737.951 155.88 737.801 156.17 737.591 156.41C737.381 156.65 737.121 156.84 736.821 156.97C736.521 157.1 736.181 157.16 735.801 157.16C735.421 157.16 735.081 157.1 734.781 156.97C734.481 156.84 734.231 156.65 734.021 156.41C733.811 156.17 733.651 155.88 733.541 155.54C733.431 155.19 733.371 154.81 733.371 154.38C733.371 153.95 733.431 153.57 733.541 153.23C733.651 152.89 733.811 152.6 734.021 152.36C734.231 152.12 734.481 151.93 734.781 151.8C735.081 151.67 735.421 151.61 735.801 151.61C736.181 151.61 736.521 151.67 736.821 151.8C737.121 151.93 737.381 152.12 737.591 152.36C737.801 152.6 737.951 152.89 738.061 153.23C738.181 153.57 738.231 153.95 738.231 154.38ZM737.331 154.38C737.331 154.09 737.301 153.82 737.231 153.58C737.171 153.34 737.071 153.13 736.941 152.95C736.811 152.78 736.651 152.64 736.461 152.54C736.271 152.44 736.051 152.39 735.801 152.39C735.551 152.39 735.331 152.44 735.141 152.54C734.951 152.64 734.791 152.78 734.661 152.95C734.531 153.13 734.431 153.34 734.371 153.58C734.301 153.82 734.271 154.09 734.271 154.38C734.271 154.67 734.301 154.94 734.371 155.18C734.431 155.43 734.531 155.64 734.661 155.82C734.791 155.99 734.951 156.13 735.141 156.23C735.331 156.33 735.551 156.38 735.801 156.38C736.051 156.38 736.271 156.33 736.461 156.23C736.651 156.13 736.811 155.99 736.941 155.82C737.071 155.64 737.171 155.43 737.231 155.18C737.301 154.94 737.331 154.67 737.331 154.38ZM492.56 167.88H495V165.77H495.9V171H495V168.66H492.56V171H491.66V165.77H492.56V167.88ZM497.207 167.34C497.217 167.02 497.277 166.75 497.387 166.53C497.497 166.31 497.647 166.13 497.837 166C498.027 165.86 498.247 165.76 498.507 165.7C498.767 165.64 499.047 165.61 499.357 165.61C499.607 165.61 499.857 165.63 500.097 165.69C500.337 165.74 500.547 165.82 500.727 165.94C500.917 166.05 501.067 166.21 501.177 166.39C501.297 166.57 501.347 166.8 501.347 167.06V170.1C501.347 170.18 501.367 170.26 501.417 170.32C501.457 170.38 501.537 170.41 501.637 170.41C501.677 170.41 501.727 170.4 501.777 170.39C501.827 170.39 501.877 170.38 501.927 170.37V170.99C501.857 171.01 501.777 171.03 501.707 171.04C501.637 171.06 501.547 171.07 501.447 171.07C501.287 171.07 501.157 171.05 501.047 171.03C500.927 171 500.837 170.96 500.757 170.9C500.687 170.84 500.627 170.76 500.577 170.66C500.537 170.57 500.517 170.45 500.497 170.31C500.387 170.43 500.267 170.54 500.147 170.64C500.027 170.75 499.887 170.84 499.727 170.91C499.577 170.99 499.407 171.05 499.217 171.1C499.027 171.14 498.817 171.16 498.577 171.16C498.377 171.16 498.187 171.13 497.997 171.06C497.807 171 497.627 170.9 497.477 170.78C497.327 170.65 497.207 170.49 497.117 170.3C497.017 170.12 496.977 169.9 496.977 169.65C496.977 169.38 497.017 169.15 497.117 168.95C497.207 168.75 497.327 168.59 497.467 168.46C497.617 168.32 497.787 168.23 497.977 168.15C498.167 168.08 498.357 168.04 498.547 168.01L500.017 167.83C500.157 167.82 500.267 167.76 500.347 167.67C500.427 167.57 500.467 167.43 500.467 167.22C500.467 166.9 500.367 166.68 500.157 166.54C499.947 166.4 499.657 166.33 499.267 166.33C498.867 166.33 498.577 166.42 498.377 166.58C498.187 166.75 498.067 167 498.047 167.34H497.207ZM500.447 168.34C500.377 168.39 500.287 168.43 500.187 168.47C500.077 168.5 499.957 168.53 499.837 168.55C499.707 168.58 499.567 168.6 499.427 168.61L498.997 168.67C498.837 168.7 498.687 168.72 498.547 168.77C498.417 168.81 498.297 168.87 498.197 168.93C498.087 169 498.017 169.09 497.957 169.18C497.907 169.28 497.877 169.39 497.877 169.52C497.877 169.67 497.897 169.8 497.947 169.92C497.997 170.03 498.057 170.13 498.147 170.2C498.227 170.28 498.327 170.34 498.437 170.38C498.557 170.42 498.687 170.44 498.827 170.44C498.917 170.44 499.017 170.43 499.127 170.4C499.247 170.38 499.357 170.36 499.477 170.31C499.607 170.27 499.717 170.21 499.837 170.15C499.947 170.08 500.057 170 500.147 169.91C500.237 169.81 500.307 169.71 500.367 169.58C500.417 169.46 500.447 169.33 500.447 169.18V168.34ZM503.093 172.28H502.253V170.22H502.943C503.083 169.87 503.193 169.51 503.283 169.14C503.363 168.77 503.433 168.41 503.473 168.03C503.523 167.66 503.553 167.28 503.563 166.91C503.573 166.53 503.583 166.15 503.583 165.77H507.233V170.22H507.973V172.28H507.133V171H503.093V172.28ZM504.443 166.55C504.413 166.85 504.403 167.15 504.373 167.46C504.353 167.78 504.313 168.09 504.273 168.4C504.233 168.72 504.183 169.03 504.113 169.33C504.043 169.64 503.963 169.94 503.853 170.22H506.333V166.55H504.443ZM513.288 169.33C513.258 169.56 513.178 169.78 513.058 170C512.938 170.22 512.778 170.41 512.578 170.58C512.388 170.76 512.158 170.9 511.898 171C511.628 171.11 511.328 171.16 511.008 171.16C510.658 171.16 510.338 171.1 510.038 170.99C509.738 170.87 509.478 170.7 509.268 170.46C509.048 170.23 508.878 169.94 508.758 169.59C508.628 169.24 508.568 168.82 508.568 168.35C508.568 168.03 508.598 167.74 508.678 167.48C508.748 167.22 508.838 166.99 508.958 166.79C509.078 166.59 509.218 166.41 509.368 166.26C509.528 166.11 509.688 165.99 509.868 165.89C510.038 165.8 510.218 165.73 510.398 165.68C510.578 165.63 510.758 165.61 510.928 165.61C511.288 165.61 511.608 165.66 511.908 165.77C512.208 165.88 512.458 166.04 512.678 166.26C512.888 166.48 513.048 166.76 513.178 167.08C513.288 167.42 513.348 167.81 513.348 168.25V168.7H509.528C509.528 168.95 509.568 169.18 509.638 169.39C509.698 169.6 509.798 169.77 509.928 169.92C510.048 170.07 510.208 170.18 510.388 170.26C510.568 170.34 510.768 170.38 510.998 170.38C511.228 170.38 511.428 170.35 511.588 170.28C511.748 170.22 511.878 170.14 511.988 170.03C512.098 169.93 512.178 169.82 512.248 169.7C512.318 169.57 512.368 169.45 512.418 169.33H513.288ZM512.448 167.98C512.438 167.73 512.398 167.5 512.338 167.3C512.258 167.1 512.158 166.94 512.038 166.8C511.918 166.67 511.758 166.57 511.588 166.49C511.408 166.42 511.218 166.39 510.998 166.39C510.798 166.39 510.608 166.43 510.438 166.51C510.258 166.59 510.108 166.7 509.978 166.84C509.848 166.98 509.748 167.15 509.668 167.34C509.588 167.54 509.538 167.75 509.528 167.98H512.448ZM516.624 165.77C517.264 165.77 517.734 165.89 518.054 166.13C518.374 166.37 518.524 166.71 518.524 167.16C518.524 167.4 518.474 167.61 518.354 167.77C518.234 167.94 518.084 168.08 517.894 168.21C518.164 168.31 518.384 168.47 518.544 168.66C518.714 168.86 518.794 169.11 518.794 169.42C518.794 169.66 518.754 169.88 518.674 170.08C518.584 170.27 518.464 170.44 518.304 170.58C518.134 170.71 517.924 170.81 517.674 170.89C517.414 170.96 517.104 171 516.764 171H514.394V165.77H516.624ZM516.654 167.98C516.954 167.98 517.194 167.92 517.364 167.8C517.544 167.68 517.634 167.49 517.634 167.24C517.634 167.1 517.604 166.98 517.554 166.88C517.504 166.79 517.444 166.71 517.364 166.65C517.274 166.59 517.194 166.55 517.084 166.52C516.984 166.5 516.874 166.49 516.774 166.49H515.294V167.98H516.654ZM516.654 170.28C516.894 170.28 517.094 170.26 517.254 170.22C517.414 170.19 517.534 170.14 517.634 170.06C517.724 169.99 517.794 169.91 517.834 169.8C517.874 169.7 517.894 169.59 517.894 169.46C517.894 169.33 517.874 169.22 517.834 169.12C517.794 169.01 517.724 168.93 517.634 168.86C517.534 168.79 517.414 168.73 517.254 168.7C517.094 168.66 516.894 168.64 516.654 168.64H515.294V170.28H516.654ZM519.863 167.34C519.873 167.02 519.933 166.75 520.043 166.53C520.153 166.31 520.303 166.13 520.493 166C520.683 165.86 520.903 165.76 521.163 165.7C521.423 165.64 521.703 165.61 522.013 165.61C522.263 165.61 522.513 165.63 522.753 165.69C522.993 165.74 523.203 165.82 523.383 165.94C523.573 166.05 523.723 166.21 523.833 166.39C523.953 166.57 524.003 166.8 524.003 167.06V170.1C524.003 170.18 524.023 170.26 524.073 170.32C524.113 170.38 524.193 170.41 524.293 170.41C524.333 170.41 524.383 170.4 524.433 170.39C524.483 170.39 524.533 170.38 524.583 170.37V170.99C524.513 171.01 524.433 171.03 524.363 171.04C524.293 171.06 524.203 171.07 524.103 171.07C523.943 171.07 523.813 171.05 523.703 171.03C523.583 171 523.493 170.96 523.413 170.9C523.343 170.84 523.283 170.76 523.233 170.66C523.193 170.57 523.173 170.45 523.153 170.31C523.043 170.43 522.923 170.54 522.803 170.64C522.683 170.75 522.543 170.84 522.383 170.91C522.233 170.99 522.063 171.05 521.873 171.1C521.683 171.14 521.473 171.16 521.233 171.16C521.033 171.16 520.843 171.13 520.653 171.06C520.463 171 520.283 170.9 520.133 170.78C519.983 170.65 519.863 170.49 519.773 170.3C519.673 170.12 519.633 169.9 519.633 169.65C519.633 169.38 519.673 169.15 519.773 168.95C519.863 168.75 519.983 168.59 520.123 168.46C520.273 168.32 520.443 168.23 520.633 168.15C520.823 168.08 521.013 168.04 521.203 168.01L522.673 167.83C522.813 167.82 522.923 167.76 523.003 167.67C523.083 167.57 523.123 167.43 523.123 167.22C523.123 166.9 523.023 166.68 522.813 166.54C522.603 166.4 522.313 166.33 521.923 166.33C521.523 166.33 521.233 166.42 521.033 166.58C520.843 166.75 520.723 167 520.703 167.34H519.863ZM523.103 168.34C523.033 168.39 522.943 168.43 522.843 168.47C522.733 168.5 522.613 168.53 522.493 168.55C522.363 168.58 522.223 168.6 522.083 168.61L521.653 168.67C521.493 168.7 521.343 168.72 521.203 168.77C521.073 168.81 520.953 168.87 520.853 168.93C520.743 169 520.673 169.09 520.613 169.18C520.563 169.28 520.533 169.39 520.533 169.52C520.533 169.67 520.553 169.8 520.603 169.92C520.653 170.03 520.713 170.13 520.803 170.2C520.883 170.28 520.983 170.34 521.093 170.38C521.213 170.42 521.343 170.44 521.483 170.44C521.573 170.44 521.673 170.43 521.783 170.4C521.903 170.38 522.013 170.36 522.133 170.31C522.263 170.27 522.373 170.21 522.493 170.15C522.603 170.08 522.713 170 522.803 169.91C522.893 169.81 522.963 169.71 523.023 169.58C523.073 169.46 523.103 169.33 523.103 169.18V168.34ZM525.02 165.77H529.52V166.55H527.72V171H526.82V166.55H525.02V165.77ZM531.33 167.74H532.78C533.07 167.74 533.32 167.78 533.54 167.85C533.77 167.93 533.96 168.04 534.12 168.18C534.27 168.32 534.39 168.49 534.48 168.69C534.56 168.89 534.6 169.12 534.6 169.37C534.6 169.62 534.56 169.85 534.48 170.05C534.39 170.25 534.27 170.42 534.12 170.56C533.96 170.7 533.77 170.81 533.54 170.89C533.32 170.96 533.07 171 532.78 171H530.43V165.77H531.33V167.74ZM532.6 170.28C532.76 170.28 532.9 170.27 533.04 170.23C533.17 170.2 533.29 170.15 533.39 170.07C533.49 170 533.56 169.91 533.62 169.79C533.67 169.68 533.7 169.54 533.7 169.37C533.7 169.21 533.67 169.07 533.62 168.95C533.56 168.84 533.48 168.74 533.38 168.67C533.28 168.6 533.15 168.54 533.01 168.51C532.86 168.48 532.7 168.46 532.52 168.46H531.33V170.28H532.6ZM539.113 171H538.213V165.77H542.453V171H541.553V166.55H539.113V171ZM548.319 168.38C548.319 168.81 548.269 169.19 548.149 169.54C548.039 169.88 547.889 170.17 547.679 170.41C547.469 170.65 547.209 170.84 546.909 170.97C546.609 171.1 546.269 171.16 545.889 171.16C545.509 171.16 545.169 171.1 544.869 170.97C544.569 170.84 544.319 170.65 544.109 170.41C543.899 170.17 543.739 169.88 543.629 169.54C543.519 169.19 543.459 168.81 543.459 168.38C543.459 167.95 543.519 167.57 543.629 167.23C543.739 166.89 543.899 166.6 544.109 166.36C544.319 166.12 544.569 165.93 544.869 165.8C545.169 165.67 545.509 165.61 545.889 165.61C546.269 165.61 546.609 165.67 546.909 165.8C547.209 165.93 547.469 166.12 547.679 166.36C547.889 166.6 548.039 166.89 548.149 167.23C548.269 167.57 548.319 167.95 548.319 168.38ZM547.419 168.38C547.419 168.09 547.389 167.82 547.319 167.58C547.259 167.34 547.159 167.13 547.029 166.95C546.899 166.78 546.739 166.64 546.549 166.54C546.359 166.44 546.139 166.39 545.889 166.39C545.639 166.39 545.419 166.44 545.229 166.54C545.039 166.64 544.879 166.78 544.749 166.95C544.619 167.13 544.519 167.34 544.459 167.58C544.389 167.82 544.359 168.09 544.359 168.38C544.359 168.67 544.389 168.94 544.459 169.18C544.519 169.43 544.619 169.64 544.749 169.82C544.879 169.99 545.039 170.13 545.229 170.23C545.419 170.33 545.639 170.38 545.889 170.38C546.139 170.38 546.359 170.33 546.549 170.23C546.739 170.13 546.899 169.99 547.029 169.82C547.159 169.64 547.259 169.43 547.319 169.18C547.389 168.94 547.419 168.67 547.419 168.38ZM550.806 167.81C550.786 168.44 550.736 168.97 550.656 169.39C550.576 169.82 550.476 170.16 550.336 170.42C550.206 170.68 550.036 170.86 549.846 170.97C549.656 171.07 549.436 171.13 549.186 171.13C549.096 171.13 549.016 171.11 548.956 171.09C548.886 171.06 548.836 171.03 548.796 171V170.21C548.926 170.26 549.036 170.28 549.136 170.28C549.206 170.28 549.276 170.27 549.336 170.25C549.396 170.22 549.456 170.18 549.516 170.12C549.566 170.05 549.626 169.96 549.676 169.84C549.716 169.72 549.766 169.56 549.806 169.37C549.836 169.18 549.876 168.95 549.896 168.68C549.916 168.4 549.936 168.08 549.946 167.7L549.986 165.77H553.746V171H552.846V166.55H550.846L550.806 167.81ZM555.968 167.88H558.408V165.77H559.308V171H558.408V168.66H555.968V171H555.068V165.77H555.968V167.88ZM561.525 167.74H563.095C563.375 167.74 563.635 167.78 563.865 167.85C564.085 167.93 564.275 168.04 564.435 168.18C564.585 168.32 564.715 168.49 564.795 168.69C564.875 168.89 564.915 169.12 564.915 169.37C564.915 169.62 564.875 169.85 564.795 170.05C564.715 170.25 564.585 170.42 564.435 170.56C564.275 170.7 564.085 170.81 563.865 170.89C563.635 170.96 563.375 171 563.095 171H560.625V165.77H561.525V167.74ZM566.525 171H565.625V165.77H566.525V171ZM562.915 170.28C563.075 170.28 563.215 170.27 563.355 170.23C563.485 170.2 563.605 170.15 563.705 170.07C563.795 170 563.875 169.91 563.925 169.79C563.985 169.68 564.015 169.54 564.015 169.37C564.015 169.21 563.985 169.07 563.925 168.95C563.875 168.84 563.795 168.74 563.695 168.67C563.585 168.6 563.465 168.54 563.315 168.51C563.175 168.48 563.015 168.46 562.835 168.46H561.525V170.28H562.915ZM569.252 163.74C569.292 163.95 569.382 164.11 569.512 164.23C569.652 164.35 569.852 164.42 570.102 164.42C570.372 164.42 570.572 164.36 570.702 164.24C570.832 164.12 570.922 163.95 570.962 163.74H571.792C571.792 163.93 571.752 164.11 571.672 164.27C571.582 164.43 571.472 164.56 571.332 164.67C571.172 164.78 571.002 164.87 570.792 164.93C570.582 164.99 570.352 165.02 570.102 165.02C569.862 165.02 569.632 164.99 569.422 164.93C569.222 164.87 569.042 164.79 568.892 164.68C568.752 164.56 568.642 164.43 568.552 164.27C568.472 164.12 568.432 163.94 568.422 163.74H569.252ZM568.742 169.78H568.762L571.332 165.77H572.362V171H571.452V166.99H571.432L568.872 171H567.842V165.77H568.742V169.78ZM577.355 168.3L579.995 165.77H581.175L578.715 168.08L581.215 171H580.055L578.015 168.63L577.355 169.18V171H576.455V165.77H577.355V168.3ZM586.483 168.38C586.483 168.81 586.433 169.19 586.313 169.54C586.203 169.88 586.053 170.17 585.843 170.41C585.633 170.65 585.373 170.84 585.073 170.97C584.773 171.1 584.433 171.16 584.053 171.16C583.673 171.16 583.333 171.1 583.033 170.97C582.733 170.84 582.483 170.65 582.273 170.41C582.063 170.17 581.903 169.88 581.793 169.54C581.683 169.19 581.623 168.81 581.623 168.38C581.623 167.95 581.683 167.57 581.793 167.23C581.903 166.89 582.063 166.6 582.273 166.36C582.483 166.12 582.733 165.93 583.033 165.8C583.333 165.67 583.673 165.61 584.053 165.61C584.433 165.61 584.773 165.67 585.073 165.8C585.373 165.93 585.633 166.12 585.843 166.36C586.053 166.6 586.203 166.89 586.313 167.23C586.433 167.57 586.483 167.95 586.483 168.38ZM585.583 168.38C585.583 168.09 585.553 167.82 585.483 167.58C585.423 167.34 585.323 167.13 585.193 166.95C585.063 166.78 584.903 166.64 584.713 166.54C584.523 166.44 584.303 166.39 584.053 166.39C583.803 166.39 583.583 166.44 583.393 166.54C583.203 166.64 583.043 166.78 582.913 166.95C582.783 167.13 582.683 167.34 582.623 167.58C582.553 167.82 582.523 168.09 582.523 168.38C582.523 168.67 582.553 168.94 582.623 169.18C582.683 169.43 582.783 169.64 582.913 169.82C583.043 169.99 583.203 170.13 583.393 170.23C583.583 170.33 583.803 170.38 584.053 170.38C584.303 170.38 584.523 170.33 584.713 170.23C584.903 170.13 585.063 169.99 585.193 169.82C585.323 169.64 585.423 169.43 585.483 169.18C585.553 168.94 585.583 168.67 585.583 168.38ZM590.18 170.06H590.2L591.6 165.77H592.83V171H591.99V166.79H591.97L590.59 171H589.73L588.35 166.79H588.33V171H587.49V165.77H588.8L590.18 170.06ZM595.05 171H594.15V165.77H598.39V171H597.49V166.55H595.05V171ZM601.187 167.81C601.167 168.44 601.117 168.97 601.037 169.39C600.957 169.82 600.857 170.16 600.717 170.42C600.587 170.68 600.417 170.86 600.227 170.97C600.037 171.07 599.817 171.13 599.567 171.13C599.477 171.13 599.397 171.11 599.337 171.09C599.267 171.06 599.217 171.03 599.177 171V170.21C599.307 170.26 599.417 170.28 599.517 170.28C599.587 170.28 599.657 170.27 599.717 170.25C599.777 170.22 599.837 170.18 599.897 170.12C599.947 170.05 600.007 169.96 600.057 169.84C600.097 169.72 600.147 169.56 600.187 169.37C600.217 169.18 600.257 168.95 600.277 168.68C600.297 168.4 600.317 168.08 600.327 167.7L600.367 165.77H604.127V171H603.227V166.55H601.227L601.187 167.81ZM609.899 169.33C609.869 169.56 609.789 169.78 609.669 170C609.549 170.22 609.389 170.41 609.189 170.58C608.999 170.76 608.769 170.9 608.509 171C608.239 171.11 607.939 171.16 607.619 171.16C607.269 171.16 606.949 171.1 606.649 170.99C606.349 170.87 606.089 170.7 605.879 170.46C605.659 170.23 605.489 169.94 605.369 169.59C605.239 169.24 605.179 168.82 605.179 168.35C605.179 168.03 605.209 167.74 605.289 167.48C605.359 167.22 605.449 166.99 605.569 166.79C605.689 166.59 605.829 166.41 605.979 166.26C606.139 166.11 606.299 165.99 606.479 165.89C606.649 165.8 606.829 165.73 607.009 165.68C607.189 165.63 607.369 165.61 607.539 165.61C607.899 165.61 608.219 165.66 608.519 165.77C608.819 165.88 609.069 166.04 609.289 166.26C609.499 166.48 609.659 166.76 609.789 167.08C609.899 167.42 609.959 167.81 609.959 168.25V168.7H606.139C606.139 168.95 606.179 169.18 606.249 169.39C606.309 169.6 606.409 169.77 606.539 169.92C606.659 170.07 606.819 170.18 606.999 170.26C607.179 170.34 607.379 170.38 607.609 170.38C607.839 170.38 608.039 170.35 608.199 170.28C608.359 170.22 608.489 170.14 608.599 170.03C608.709 169.93 608.789 169.82 608.859 169.7C608.929 169.57 608.979 169.45 609.029 169.33H609.899ZM609.059 167.98C609.049 167.73 609.009 167.5 608.949 167.3C608.869 167.1 608.769 166.94 608.649 166.8C608.529 166.67 608.369 166.57 608.199 166.49C608.019 166.42 607.829 166.39 607.609 166.39C607.409 166.39 607.219 166.43 607.049 166.51C606.869 166.59 606.719 166.7 606.589 166.84C606.459 166.98 606.359 167.15 606.279 167.34C606.199 167.54 606.149 167.75 606.139 167.98H609.059ZM611.906 168.3L614.546 165.77H615.726L613.266 168.08L615.766 171H614.606L612.566 168.63L611.906 169.18V171H611.006V165.77H611.906V168.3ZM616.074 165.77H620.574V166.55H618.774V171H617.874V166.55H616.074V165.77ZM626.077 167.98C626.197 167.98 626.317 167.96 626.447 167.93C626.577 167.9 626.697 167.86 626.807 167.79C626.917 167.73 626.997 167.65 627.077 167.55C627.147 167.45 627.177 167.32 627.177 167.18C627.177 167.08 627.157 166.98 627.117 166.88C627.067 166.79 626.997 166.7 626.917 166.63C626.827 166.55 626.727 166.5 626.587 166.45C626.457 166.41 626.307 166.39 626.137 166.39C626.047 166.39 625.937 166.41 625.817 166.43C625.687 166.45 625.567 166.5 625.457 166.57C625.327 166.64 625.227 166.74 625.137 166.87C625.047 167 624.977 167.17 624.957 167.37H624.117C624.137 167.14 624.187 166.93 624.257 166.75C624.327 166.58 624.417 166.42 624.527 166.29C624.637 166.16 624.757 166.05 624.887 165.97C625.027 165.88 625.167 165.81 625.307 165.76C625.457 165.7 625.597 165.67 625.747 165.64C625.897 165.62 626.037 165.61 626.167 165.61C626.397 165.61 626.627 165.64 626.857 165.7C627.087 165.76 627.297 165.85 627.477 165.97C627.657 166.09 627.797 166.25 627.907 166.43C628.017 166.62 628.077 166.83 628.077 167.08C628.077 167.25 628.047 167.38 628.007 167.5C627.967 167.63 627.907 167.73 627.827 167.83C627.757 167.92 627.677 167.99 627.577 168.06C627.487 168.12 627.397 168.17 627.317 168.22V168.24C627.407 168.26 627.507 168.29 627.617 168.34C627.727 168.39 627.827 168.46 627.927 168.55C628.017 168.65 628.097 168.77 628.167 168.91C628.227 169.06 628.257 169.23 628.257 169.44C628.257 169.74 628.187 169.99 628.067 170.2C627.947 170.42 627.777 170.59 627.577 170.74C627.377 170.88 627.147 170.99 626.897 171.06C626.637 171.13 626.387 171.16 626.127 171.16C625.797 171.16 625.497 171.12 625.227 171.03C624.957 170.95 624.727 170.83 624.527 170.67C624.337 170.52 624.177 170.33 624.067 170.11C623.947 169.89 623.877 169.65 623.857 169.39H624.757C624.787 169.58 624.837 169.74 624.927 169.87C625.017 169.99 625.117 170.1 625.247 170.17C625.367 170.24 625.507 170.3 625.657 170.33C625.807 170.37 625.957 170.38 626.117 170.38C626.527 170.38 626.837 170.3 627.047 170.13C627.257 169.96 627.357 169.74 627.357 169.46C627.357 169.34 627.337 169.23 627.307 169.14C627.267 169.05 627.197 168.96 627.117 168.9C627.027 168.83 626.907 168.78 626.767 168.74C626.617 168.71 626.437 168.7 626.227 168.7H626.087C626.027 168.7 625.977 168.7 625.917 168.71H625.757L625.617 168.73V167.98H626.077ZM629.257 167.34C629.267 167.02 629.327 166.75 629.437 166.53C629.547 166.31 629.697 166.13 629.887 166C630.077 165.86 630.297 165.76 630.557 165.7C630.817 165.64 631.097 165.61 631.407 165.61C631.657 165.61 631.907 165.63 632.147 165.69C632.387 165.74 632.597 165.82 632.777 165.94C632.967 166.05 633.117 166.21 633.227 166.39C633.347 166.57 633.397 166.8 633.397 167.06V170.1C633.397 170.18 633.417 170.26 633.467 170.32C633.507 170.38 633.587 170.41 633.687 170.41C633.727 170.41 633.777 170.4 633.827 170.39C633.877 170.39 633.927 170.38 633.977 170.37V170.99C633.907 171.01 633.827 171.03 633.757 171.04C633.687 171.06 633.597 171.07 633.497 171.07C633.337 171.07 633.207 171.05 633.097 171.03C632.977 171 632.887 170.96 632.807 170.9C632.737 170.84 632.677 170.76 632.627 170.66C632.587 170.57 632.567 170.45 632.547 170.31C632.437 170.43 632.317 170.54 632.197 170.64C632.077 170.75 631.937 170.84 631.777 170.91C631.627 170.99 631.457 171.05 631.267 171.1C631.077 171.14 630.867 171.16 630.627 171.16C630.427 171.16 630.237 171.13 630.047 171.06C629.857 171 629.677 170.9 629.527 170.78C629.377 170.65 629.257 170.49 629.167 170.3C629.067 170.12 629.027 169.9 629.027 169.65C629.027 169.38 629.067 169.15 629.167 168.95C629.257 168.75 629.377 168.59 629.517 168.46C629.667 168.32 629.837 168.23 630.027 168.15C630.217 168.08 630.407 168.04 630.597 168.01L632.067 167.83C632.207 167.82 632.317 167.76 632.397 167.67C632.477 167.57 632.517 167.43 632.517 167.22C632.517 166.9 632.417 166.68 632.207 166.54C631.997 166.4 631.707 166.33 631.317 166.33C630.917 166.33 630.627 166.42 630.427 166.58C630.237 166.75 630.117 167 630.097 167.34H629.257ZM632.497 168.34C632.427 168.39 632.337 168.43 632.237 168.47C632.127 168.5 632.007 168.53 631.887 168.55C631.757 168.58 631.617 168.6 631.477 168.61L631.047 168.67C630.887 168.7 630.737 168.72 630.597 168.77C630.467 168.81 630.347 168.87 630.247 168.93C630.137 169 630.067 169.09 630.007 169.18C629.957 169.28 629.927 169.39 629.927 169.52C629.927 169.67 629.947 169.8 629.997 169.92C630.047 170.03 630.107 170.13 630.197 170.2C630.277 170.28 630.377 170.34 630.487 170.38C630.607 170.42 630.737 170.44 630.877 170.44C630.967 170.44 631.067 170.43 631.177 170.4C631.297 170.38 631.407 170.36 631.527 170.31C631.657 170.27 631.767 170.21 631.887 170.15C631.997 170.08 632.107 170 632.197 169.91C632.287 169.81 632.357 169.71 632.417 169.58C632.467 169.46 632.497 169.33 632.497 169.18V168.34ZM634.824 165.77H635.724V170.22H637.604V165.77H638.504V170.22H640.384V165.77H641.284V170.22H641.934V172.28H641.094V171H634.824V165.77ZM643.644 169.78H643.664L646.234 165.77H647.264V171H646.354V166.99H646.334L643.774 171H642.744V165.77H643.644V169.78ZM648.164 165.77H652.664V166.55H650.864V171H649.964V166.55H648.164V165.77ZM654.474 167.74H656.044C656.324 167.74 656.584 167.78 656.814 167.85C657.034 167.93 657.224 168.04 657.384 168.18C657.534 168.32 657.664 168.49 657.744 168.69C657.824 168.89 657.864 169.12 657.864 169.37C657.864 169.62 657.824 169.85 657.744 170.05C657.664 170.25 657.534 170.42 657.384 170.56C657.224 170.7 657.034 170.81 656.814 170.89C656.584 170.96 656.324 171 656.044 171H653.574V165.77H654.474V167.74ZM659.474 171H658.574V165.77H659.474V171ZM655.864 170.28C656.024 170.28 656.164 170.27 656.304 170.23C656.434 170.2 656.554 170.15 656.654 170.07C656.744 170 656.824 169.91 656.874 169.79C656.934 169.68 656.964 169.54 656.964 169.37C656.964 169.21 656.934 169.07 656.874 168.95C656.824 168.84 656.744 168.74 656.644 168.67C656.534 168.6 656.414 168.54 656.264 168.51C656.124 168.48 655.964 168.46 655.784 168.46H654.474V170.28H655.864ZM662.001 171H660.981V169.94H662.001V171Z" fill="white"/>
</g>
</g>
<defs>
<filter id="filter0_f_181_193" x="321" y="-92" width="158" height="851" filterUnits="userSpaceOnUse" color-interpolation-filters="sRGB">
<feFlood flood-opacity="0" result="BackgroundImageFix"/>
<feBlend mode="normal" in="SourceGraphic" in2="BackgroundImageFix" result="shape"/>
<feGaussianBlur stdDeviation="25" result="effect1_foregroundBlur_181_193"/>
</filter>
<filter id="filter1_f_181_193" x="313" y="-97" width="158" height="851" filterUnits="userSpaceOnUse" color-interpolation-filters="sRGB">
<feFlood flood-opacity="0" result="BackgroundImageFix"/>
<feBlend mode="normal" in="SourceGraphic" in2="BackgroundImageFix" result="shape"/>
<feGaussianBlur stdDeviation="25" result="effect1_foregroundBlur_181_193"/>
</filter>
<clipPath id="clip0_181_193">
<rect width="792" height="595" fill="white"/>
</clipPath>
<clipPath id="clip1_181_193">
<rect width="396" height="595" fill="white"/>
</clipPath>
<clipPath id="clip2_181_193">
<rect width="396" height="595" fill="white" transform="translate(396)"/>
</clipPath>
</defs>
</svg>
