<svg width="33" height="31" viewBox="0 0 33 31" fill="none" xmlns="http://www.w3.org/2000/svg">
<path d="M21.6306 18.6168V19.3749H11.9895V18.6168H21.6306ZM21.7152 18.5325V0.84233C21.7152 0.795806 21.6773 0.758091 21.6306 0.758091H11.9895C11.9428 0.758091 11.9049 0.795807 11.9049 0.84233V18.5325C11.9049 18.5791 11.9428 18.6168 11.9895 18.6168V19.3749L11.946 19.3739C11.5136 19.352 11.1668 19.0066 11.1449 18.5759L11.1438 18.5325V0.84233C11.1438 0.39163 11.4991 0.0235717 11.946 0.00100841L11.9895 -6.10352e-05H21.6306C22.0977 -6.10352e-05 22.4763 0.37709 22.4763 0.84233V18.5325C22.4763 18.9978 22.0977 19.3749 21.6306 19.3749V18.6168C21.6773 18.6168 21.7152 18.5791 21.7152 18.5325Z" fill="#7289FF"/>
<path d="M16.5104 21.2167L15.8513 21.5958L11.0307 13.2791L11.6899 12.9L16.5104 21.2167ZM16.626 21.2475L32.0065 12.4024C32.0469 12.3792 32.0608 12.3276 32.0374 12.2873L27.2169 3.97068C27.1935 3.93039 27.1418 3.91659 27.1014 3.93985L11.7208 12.785C11.6804 12.8082 11.6665 12.8597 11.6899 12.9L11.0307 13.2791L11.0099 13.241C10.8127 12.8571 10.9396 12.3853 11.3031 12.151L11.3403 12.1284L26.7208 3.28327C27.1126 3.05792 27.6103 3.18041 27.8534 3.55459L27.8761 3.59161L32.6966 11.9083C32.9301 12.3112 32.7915 12.8264 32.387 13.059L17.0065 21.9041C16.602 22.1367 16.0848 21.9987 15.8513 21.5958L16.5104 21.2167C16.5338 21.257 16.5855 21.2708 16.626 21.2475Z" fill="#7289FF"/>
<path d="M11.6899 18.0998L11.0307 17.7208L15.8513 9.40411L16.5104 9.78318L11.6899 18.0998ZM11.7208 18.2149L27.1014 27.06C27.1418 27.0833 27.1935 27.0695 27.2169 27.0292L32.0374 18.7125C32.0608 18.6722 32.0469 18.6207 32.0065 18.5975L16.626 9.75235C16.5855 9.72909 16.5338 9.74289 16.5104 9.78318L15.8513 9.40411L15.874 9.3671C16.1092 9.00499 16.5828 8.87856 16.9683 9.07502L17.0065 9.09577L32.387 17.9409C32.7789 18.1662 32.9212 18.6568 32.7174 19.0535L32.6966 19.0916L27.8761 27.4083C27.6425 27.8112 27.1253 27.9492 26.7208 27.7166L11.3403 18.8715C10.9358 18.6389 10.7972 18.1237 11.0307 17.7208L11.6899 18.0998C11.6665 18.1401 11.6804 18.1917 11.7208 18.2149Z" fill="#7289FF"/>
<path d="M11.9895 12.3831V11.6249L21.6306 11.6249V12.3831L11.9895 12.3831ZM11.9049 12.4673L11.9049 30.1575C11.9049 30.2041 11.9428 30.2418 11.9895 30.2418H21.6306C21.6773 30.2418 21.7152 30.2041 21.7152 30.1575L21.7152 12.4673C21.7152 12.4208 21.6773 12.3831 21.6306 12.3831V11.6249L21.6741 11.626C22.1066 11.6478 22.4533 11.9932 22.4752 12.424L22.4763 12.4673V30.1575C22.4763 30.6082 22.121 30.9763 21.6741 30.9989L21.6306 30.9999H11.9895C11.5224 30.9999 11.1438 30.6228 11.1438 30.1575L11.1438 12.4673C11.1438 12.0021 11.5224 11.6249 11.9895 11.6249V12.3831C11.9428 12.3831 11.9049 12.4208 11.9049 12.4673Z" fill="#7289FF"/>
<path d="M17.1097 9.78318L17.7689 9.40411L22.5894 17.7208L21.9302 18.0999L17.1097 9.78318ZM16.9942 9.75235L1.61364 18.5975C1.57319 18.6207 1.55933 18.6722 1.58269 18.7125L6.40323 27.0292C6.42658 27.0695 6.47831 27.0833 6.51876 27.06L21.8993 18.2149C21.9397 18.1917 21.9536 18.1401 21.9302 18.0999L22.5894 17.7208L22.6102 17.7589C22.8075 18.1428 22.6805 18.6146 22.317 18.8489L22.2798 18.8715L6.89932 27.7166C6.50747 27.942 6.0098 27.8195 5.76676 27.4453L5.74406 27.4083L0.923522 19.0916C0.689986 18.6887 0.828577 18.1735 1.23307 17.9409L16.6136 9.09577C17.0181 8.86315 17.5353 9.0012 17.7689 9.40411L17.1097 9.78318C17.0863 9.74289 17.0346 9.72909 16.9942 9.75235Z" fill="#7289FF"/>
<path d="M21.9302 12.9L22.5894 13.2791L17.7689 21.5958L17.1097 21.2167L21.9302 12.9ZM21.8993 12.785L6.51876 3.93985C6.47831 3.91659 6.42658 3.93039 6.40323 3.97068L1.58269 12.2874C1.55933 12.3276 1.57319 12.3792 1.61364 12.4024L16.9942 21.2475C17.0346 21.2708 17.0863 21.257 17.1097 21.2167L17.7689 21.5958L17.7462 21.6328C17.511 21.9949 17.0373 22.1213 16.6518 21.9249L16.6136 21.9041L1.23307 13.059C0.841218 12.8337 0.698884 12.3431 0.90269 11.9464L0.923522 11.9083L5.74406 3.59161C5.9776 3.1887 6.49483 3.05065 6.89932 3.28327L22.2798 12.1284C22.6843 12.361 22.8229 12.8762 22.5894 13.2791L21.9302 12.9C21.9536 12.8597 21.9397 12.8082 21.8993 12.785Z" fill="#7289FF"/>
</svg>
