<svg width="21" height="14" viewBox="0 0 21 14" fill="none" xmlns="http://www.w3.org/2000/svg">
<path d="M1.98933 -8.74694e-07C2.51219 -8.51839e-07 3.00055 0.260949 3.29115 0.695609L8.82033 8.96579C9.61103 10.1485 11.3489 10.1507 12.1427 8.97014L17.7091 0.691298C17.9997 0.259172 18.4862 -1.53592e-07 19.0069 -1.30831e-07C20.2701 -7.56161e-08 21.0121 1.42008 20.2908 2.45702L12.8577 13.1421C12.4838 13.6796 11.8705 14 11.2158 14L9.74335 14C9.08718 14 8.47274 13.6781 8.09915 13.1387L0.701956 2.45753C-0.0173054 1.41896 0.726015 -9.29915e-07 1.98933 -8.74694e-07Z" fill="#FFFBF8"/>
</svg>
